<?xml version="1.0" encoding="UTF-8" standalone="no"?>
<!DOCTYPE svg PUBLIC "-//W3C//DTD SVG 1.1//EN" "http://www.w3.org/Graphics/SVG/1.1/DTD/svg11.dtd">
<!-- Created with Vectornator (http://vectornator.io/) -->
<svg height="100%" stroke-miterlimit="10" style="fill-rule:nonzero;clip-rule:evenodd;stroke-linecap:round;stroke-linejoin:round;" version="1.1" viewBox="0 0 500 500" width="100%" xml:space="preserve" xmlns="http://www.w3.org/2000/svg" xmlns:vectornator="http://vectornator.io" xmlns:xlink="http://www.w3.org/1999/xlink">
<defs/>
<g id="Layer-1" vectornator:layerName="Layer 1">
<path d="M252 13.5C226.667 13.8333 213.5 14.8333 212.5 16.5C211.5 18.1667 210 19 208 19C207 19 206 19 205 19C205 20.5 205 22 205 23.5C205 26.5 203.667 33.8333 201 45.5C198.333 57.1667 196.5 63.5 195.5 64.5C194.5 65.5 191.833 66.5 187.5 67.5C183.167 68.5 178.5 70.5 173.5 73.5C168.5 76.5 165.167 78 163.5 78C161.833 78 156.5 74.5 147.5 67.5C138.5 60.5 132.167 56.3333 128.5 55C124.833 53.6667 121.667 53.1667 119 53.5C116.333 53.8333 111.833 55.8333 105.5 59.5C99.1667 63.1667 91.6667 69.5 83 78.5C74.3333 87.5 67.8333 95 63.5 101C59.1667 107 57.1667 113.333 57.5 120C57.8333 126.667 59.5 132.667 62.5 138C65.5 143.333 68.8333 148 72.5 152C76.1667 156 76.8333 161 74.5 167C72.1667 173 70.5 178.833 69.5 184.5C68.5 190.167 63.3333 194 54 196C44.6667 198 37.8333 200.167 33.5 202.5C29.1667 204.833 26 207.667 24 211C22 214.333 21.5 228.5 22.5 253.5C23.5 278.5 25.5 292.5 28.5 295.5C31.5 298.5 38.1667 300.333 48.5 301C58.8333 301.667 65.6667 306.667 69 316C72.3333 325.333 75.3333 332 78 336C80.6667 340 82 342.5 82 343.5C82 344.5 80.5 346.667 77.5 350C74.5 353.333 71.3333 358 68 364C64.6667 370 63 376 63 382C63 388 63.8333 392.5 65.5 395.5C67.1667 398.5 73.5 405.833 84.5 417.5C95.5 429.167 103.167 436.5 107.5 439.5C111.833 442.5 115.833 443.833 119.5 443.5C123.167 443.167 126.833 442.167 130.5 440.5C134.167 438.833 139.5 435.167 146.5 429.5C153.5 423.833 158 421 160 421C162 421 165.833 422.667 171.5 426C177.167 429.333 182.667 431.833 188 433.5C193.333 435.167 197.333 442.833 200 456.5C202.667 470.167 205 478.333 207 481C209 483.667 212 485.667 216 487C220 488.333 231.667 489.333 251 490C270.333 490.667 281.833 490.5 285.5 489.5C289.167 488.5 292.5 486.833 295.5 484.5C298.5 482.167 300.833 479.5 302.5 476.5C304.167 473.5 305.667 469.167 307 463.5C308.333 457.833 309.167 451.833 309.5 445.5C309.833 439.167 315.667 433.833 327 429.5C338.333 425.167 347.333 425.833 354 431.5C360.667 437.167 365.833 441 369.5 443C373.167 445 376.833 446.333 380.5 447C384.167 447.667 387.5 447.333 390.5 446C393.5 444.667 400.5 439.167 411.5 429.5C422.5 419.833 430.667 412.333 436 407C441.333 401.667 444.667 397.667 446 395C447.333 392.333 448.167 389.167 448.5 385.5C448.833 381.833 448.5 378.333 447.5 375C446.5 371.667 442.5 365.5 435.5 356.5C428.5 347.5 425.167 341.667 425.5 339C425.833 336.333 428.167 330 432.5 320C436.833 310 439 304 439 302C439 300 444 298.333 454 297C464 295.667 470.167 294.333 472.5 293C474.833 291.667 476.667 289.833 478 287.5C479.333 285.167 480 271.667 480 247C480 222.333 479.167 208.5 477.5 205.5C475.833 202.5 474.167 200.833 472.5 200.5C470.833 200.167 468.833 199 466.5 197C464.167 195 459 193.5 451 192.5C443 191.5 437.5 187 434.5 179C431.5 171 428.833 165.167 426.5 161.5C424.167 157.833 425.5 153.167 430.5 147.5C435.5 141.833 439.167 136.833 441.5 132.5C443.833 128.167 445.167 123.167 445.5 117.5C445.833 111.833 445.167 107.333 443.5 104C441.833 100.667 437 95 429 87C421 79 416.5 75 415.5 75C414.5 75 413.833 74.3333 413.5 73C413.167 71.6667 412 70.1667 410 68.5C408 66.8333 404.167 64.5 398.5 61.5C392.833 58.5 387.333 57.3333 382 58C376.667 58.6667 369.5 61.3333 360.5 66C351.5 70.6667 346.167 73.8333 344.5 75.5C342.833 77.1667 337.167 76.1667 327.5 72.5C317.833 68.8333 312.333 65.6667 311 63C309.667 60.3333 308.5 55 307.5 47C306.5 39 304.833 33.3333 302.5 30C300.167 26.6667 299.333 24.3333 300 23C300.667 21.6667 300.333 20.5 299 19.5C297.667 18.5 297 17.1667 297 15.5C297 14.6667 297 13.8333 297 13C295.833 13 294.667 13 293.5 13C291.167 13 277.333 13.1667 252 13.5ZM252.5 34C272.833 34 283.833 35 285.5 37C287.167 39 288.333 43.1667 289 49.5C289.667 55.8333 290.667 61.1667 292 65.5C293.333 69.8333 296.5 74.1667 301.5 78.5C306.5 82.8333 313 86.5 321 89.5C329 92.5 334.167 95.1667 336.5 97.5C338.833 99.8333 342.333 100.833 347 100.5C351.667 100.167 354 99.3333 354 98C354 96.6667 354.5 95.5 355.5 94.5C356.5 93.5 361.667 90.5 371 85.5C380.333 80.5 386.167 77.8333 388.5 77.5C390.833 77.1667 392.833 77.5 394.5 78.5C396.167 79.5 402 85.1667 412 95.5C422 105.833 426.833 112.333 426.5 115C426.167 117.667 422.833 122.5 416.5 129.5C410.167 136.5 405.833 142.167 403.5 146.5C401.167 150.833 400.5 154.333 401.5 157C402.5 159.667 403.667 161.333 405 162C406.333 162.667 407.833 164.5 409.5 167.5C411.167 170.5 413.5 176.833 416.5 186.5C419.5 196.167 422.833 202.5 426.5 205.5C430.167 208.5 435.333 210.167 442 210.5C448.667 210.833 453.667 211.667 457 213C460.333 214.333 462 224.833 462 244.5C462 264.167 456.167 275.167 444.5 277.5C438.667 278.667 432.833 279.833 427 281C427.167 281.667 427.333 282.333 427.5 283C427.667 283.667 427.833 284.333 428 285C427.333 285.167 426.667 285.333 426 285.5C424.667 285.833 422 291.833 418 303.5C414 315.167 410.5 324 407.5 330C404.5 336 403.5 340.667 404.5 344C405.5 347.333 406.333 349 407 349C407.667 349 411.333 353.333 418 362C424.667 370.667 428.333 376.167 429 378.5C429.667 380.833 429.667 382.5 429 383.5C428.333 384.5 420.167 392 404.5 406C388.833 420 379.833 426.833 377.5 426.5C375.167 426.167 372.5 424.5 369.5 421.5C366.5 418.5 364.333 417 363 417C362.333 417 361.667 417 361 417C361.167 416.5 361.333 416 361.5 415.5C361.833 414.5 360.833 412.833 358.5 410.5C356.167 408.167 354.667 407.167 354 407.5C353.667 407.667 353.333 407.833 353 408C353 407.167 353 406.333 353 405.5C353 403.833 350.833 402.833 346.5 402.5C342.167 402.167 339.833 402.833 339.5 404.5C339.167 406.167 334.167 408.833 324.5 412.5C314.833 416.167 309.5 418 308.5 418C308 418 307.5 418 307 418C307 417.333 307 416.667 307 416C307 414.667 306 413.833 304 413.5C302 413.167 300.333 414.167 299 416.5C297.667 418.833 296.167 419.833 294.5 419.5C293.667 419.333 292.833 419.167 292 419C292 420.167 292 421.333 292 422.5C292 424.833 291.5 426.167 290.5 426.5C289.5 426.833 289.333 430.833 290 438.5C290.667 446.167 290.333 453 289 459C287.667 465 286.5 468.5 285.5 469.5C284.5 470.5 278.167 471 266.5 471C254.833 471 244.667 470.333 236 469C227.333 467.667 222.167 465.167 220.5 461.5C218.833 457.833 217.5 451.167 216.5 441.5C215.5 431.833 214.333 426.333 213 425C211.667 423.667 211 422.167 211 420.5C211 418.833 209.5 417.833 206.5 417.5C203.5 417.167 195.667 414 183 408C170.333 402 163.167 399 161.5 399C159.833 399 158.167 399.833 156.5 401.5C154.833 403.167 153 404.333 151 405C149 405.667 145 408.667 139 414C133 419.333 128.833 422.333 126.5 423C124.167 423.667 122.167 423.5 120.5 422.5C118.833 421.5 111.833 414.5 99.5 401.5C87.1667 388.5 81.3333 380.5 82 377.5C82.6667 374.5 86.5 368.5 93.5 359.5C100.5 350.5 104.333 344.833 105 342.5C105.667 340.167 105.333 338.667 104 338C102.667 337.333 102.167 336.167 102.5 334.5C102.833 332.833 102 331.5 100 330.5C98 329.5 95.8333 327 93.5 323C91.1667 319 88.1667 311.667 84.5 301C80.8333 290.333 78.3333 284.5 77 283.5C75.6667 282.5 70.5 282 61.5 282C52.5 282 46.8333 281.5 44.5 280.5C42.1667 279.5 40.6667 269.167 40 249.5C39.3333 229.833 40.6667 219.333 44 218C47.3333 216.667 53.5 215.333 62.5 214C71.5 212.667 77.1667 211 79.5 209C81.8333 207 84.3333 200.5 87 189.5C89.6667 178.5 92.6667 169.833 96 163.5C99.3333 157.167 100.833 153.333 100.5 152C100.167 150.667 99.5 149.833 98.5 149.5C97.5 149.167 97.1667 148.333 97.5 147C97.8333 145.667 96.8333 144.5 94.5 143.5C92.1667 142.5 88.5 138.5 83.5 131.5C78.5 124.5 75.8333 120 75.5 118C75.1667 116 76 113.5 78 110.5C80 107.5 86.3333 100.667 97 90C107.667 79.3333 114 74 116 74C118 74 120.167 74.6667 122.5 76C124.833 77.3333 129.833 80.8333 137.5 86.5C145.167 92.1667 149.333 96 150 98C150.667 100 152.333 101 155 101C157.667 101 163.5 98.5 172.5 93.5C181.5 88.5 187.333 85.6667 190 85C192.667 84.3333 195.833 84.1667 199.5 84.5C203.167 84.8333 205.167 84.5 205.5 83.5C205.833 82.5 206.833 81.6667 208.5 81C210.167 80.3333 211.667 78.6667 213 76C214.333 73.3333 215 70.1667 215 66.5C215 62.8333 216.167 56.5 218.5 47.5C220.833 38.5 232.167 34 252.5 34ZM222 109.5C210.667 111.833 200.833 114.833 192.5 118.5C184.167 122.167 176.167 126.667 168.5 132C160.833 137.333 154 143 148 149C142 155 136.667 161.333 132 168C127.333 174.667 122.833 183 118.5 193C114.167 203 111.167 211.833 109.5 219.5C107.833 227.167 107 237.167 107 249.5C107 261.833 108 272.333 110 281C112 289.667 114.833 298.167 118.5 306.5C122.167 314.833 127 323.167 133 331.5C139 339.833 145.833 347.5 153.5 354.5C161.167 361.5 169.667 367.667 179 373C188.333 378.333 197 382.333 205 385C213 387.667 221.667 389.667 231 391C240.333 392.333 249.667 392.833 259 392.5C268.333 392.167 277.5 391 286.5 389C295.5 387 304.5 384 313.5 380C322.5 376 330.667 371.5 338 366.5C345.333 361.5 352.5 355.333 359.5 348C366.5 340.667 372.5 333.167 377.5 325.5C382.5 317.833 386.667 309.667 390 301C393.333 292.333 395.833 283.5 397.5 274.5C399.167 265.5 399.833 255.5 399.5 244.5C399.167 233.5 397.5 222.667 394.5 212C391.5 201.333 388.333 192.667 385 186C381.667 179.333 378 173.167 374 167.5C370 161.833 364.667 155.667 358 149C351.333 142.333 344.333 136.5 337 131.5C329.667 126.5 321.833 122.167 313.5 118.5C305.167 114.833 297 112 289 110C281 108 270.667 106.833 258 106.5C245.333 106.167 233.333 107.167 222 109.5ZM260.5 125.5C268.167 125.833 276 127 284 129C292 131 299.667 133.667 307 137C314.333 140.333 321.5 144.5 328.5 149.5C335.5 154.5 341.5 159.667 346.5 165C351.5 170.333 356 176 360 182C364 188 367.833 195.667 371.5 205C375.167 214.333 377.5 222 378.5 228C379.5 234 380 241 380 249C380 257 379.5 264.167 378.5 270.5C377.5 276.833 375.167 284.667 371.5 294C367.833 303.333 363.833 311.167 359.5 317.5C355.167 323.833 349.333 330.5 342 337.5C334.667 344.5 327.5 350.167 320.5 354.5C313.5 358.833 305.167 362.667 295.5 366C285.833 369.333 278.667 371.333 274 372C269.333 372.667 262.333 373 253 373C243.667 373 234.333 372 225 370C215.667 368 208.5 366 203.5 364C198.5 362 192.333 358.667 185 354C177.667 349.333 171.833 345.167 167.5 341.5C163.167 337.833 157.833 331.833 151.5 323.5C145.167 315.167 140.167 306.833 136.5 298.5C132.833 290.167 130.167 282 128.5 274C126.833 266 126 257.833 126 249.5C126 241.167 126.833 233 128.5 225C130.167 217 132.833 208.833 136.5 200.5C140.167 192.167 144.5 184.5 149.5 177.5C154.5 170.5 160.167 164.167 166.5 158.5C172.833 152.833 180 147.667 188 143C196 138.333 204.833 134.5 214.5 131.5C224.167 128.5 232.333 126.667 239 126C245.667 125.333 252.833 125.167 260.5 125.5ZM200 157.5C195.333 158.5 192 159.667 190 161C188 162.333 186.333 166.167 185 172.5C183.667 178.833 182.833 189 182.5 203C182.167 217 178.833 227.167 172.5 233.5C166.167 239.833 161 245.833 157 251.5C153 257.167 151 260.5 151 261.5C151 262.5 151.833 263.333 153.5 264C155.167 264.667 160.667 262 170 256C174.667 253 179.333 250 184 247C184 259 184 271 184 283C184 307 184.5 320.333 185.5 323C186.5 325.667 188 327.667 190 329C192 330.333 199.833 331.833 213.5 333.5C227.167 335.167 244 336 264 336C284 336 297.667 335.333 305 334C312.333 332.667 316.5 331 317.5 329C318.5 327 318.5 324.833 317.5 322.5C316.5 320.167 316.667 317.833 318 315.5C319.333 313.167 320.333 307.833 321 299.5C321.667 291.167 321.667 279.333 321 264C320.333 248.667 320.333 240.667 321 240C321.667 239.333 326 242.833 334 250.5C342 258.167 346.5 262 347.5 262C348.5 262 349.167 261.167 349.5 259.5C349.833 257.833 349.167 255.5 347.5 252.5C345.833 249.5 339.667 241.5 329 228.5C318.333 215.5 305.667 202 291 188C276.333 174 267.5 166.333 264.5 165C261.5 163.667 258.5 163 255.5 163C252.5 163 247.5 165.5 240.5 170.5C237 173 233.5 175.5 230 178C230.167 176 230.333 174 230.5 172C230.833 168 230.333 164.833 229 162.5C227.667 160.167 226 158.5 224 157.5C222 156.5 218.667 156 214 156C209.333 156 204.667 156.5 200 157.5ZM212.5 174C214.167 174 215.167 177 215.5 183C215.833 189 211.833 195.667 203.5 203C199.333 206.667 195.167 210.333 191 214C192.333 208.167 193.667 202.333 195 196.5C197.667 184.833 199.333 178.5 200 177.5C200.667 176.5 202.5 175.667 205.5 175C208.5 174.333 210.833 174 212.5 174ZM261 179C261.5 179.833 262 180.667 262.5 181.5C263.5 183.167 264.5 184 265.5 184C266.5 184 269.167 186.333 273.5 191C277.833 195.667 281.167 198.667 283.5 200C285.833 201.333 290.5 205.833 297.5 213.5C304.5 221.167 307.333 226.833 306 230.5C304.667 234.167 303.833 248.667 303.5 274C303.167 299.333 303.333 312.833 304 314.5C304.333 315.333 304.667 316.167 305 317C302.167 317 299.333 317 296.5 317C293.667 317 290.833 317 288 317C288.167 310.833 288.333 304.667 288.5 298.5C288.833 286.167 287.833 279 285.5 277C283.167 275 279 273.833 273 273.5C267 273.167 261.333 273.333 256 274C250.667 274.667 247.333 275.667 246 277C244.667 278.333 243.833 281.167 243.5 285.5C243.167 289.833 243.5 296.167 244.5 304.5C245 308.667 245.5 312.833 246 317C241.667 316.833 237.333 316.667 233 316.5C224.333 316.167 216.167 316.333 208.5 317C204.667 317.333 200.833 317.667 197 318C197.667 312.833 198.333 307.667 199 302.5C200.333 292.167 201 277.833 201 259.5C201 241.167 207.667 226.167 221 214.5C234.333 202.833 243.5 194.333 248.5 189C253.5 183.667 256.833 181 258.5 181C259.333 181 260.167 181 261 181C261 180.667 261 180.333 261 180C261 179.667 261 179.333 261 179ZM272 289C273.333 289 274.667 289 276 289C276 293.833 276 298.667 276 303.5C276 308.333 276 313.167 276 318C272.333 318 268.667 318 265 318C261.333 318 257.667 318 254 318C254.5 313.5 255 309 255.5 304.5C256.5 295.5 258.833 290.667 262.5 290C266.167 289.333 269.333 289 272 289Z" fill="#000000" fill-rule="nonzero" opacity="1" stroke="none"/>
</g>
</svg>
