<?xml version="1.0" encoding="UTF-8" standalone="no"?>
<!DOCTYPE svg PUBLIC "-//W3C//DTD SVG 1.1//EN" "http://www.w3.org/Graphics/SVG/1.1/DTD/svg11.dtd">
<!-- Created with Vectornator (http://vectornator.io/) -->
<svg height="100%" stroke-miterlimit="10" style="fill-rule:nonzero;clip-rule:evenodd;stroke-linecap:round;stroke-linejoin:round;" version="1.1" viewBox="0 0 500 500" width="100%" xml:space="preserve" xmlns="http://www.w3.org/2000/svg" xmlns:vectornator="http://vectornator.io" xmlns:xlink="http://www.w3.org/1999/xlink">
<defs/>
<g id="Layer-1" vectornator:layerName="Layer 1">
<path d="M162 111C154.667 114.333 149.833 117.167 147.5 119.5C145.167 121.833 143 126.667 141 134C139 141.333 137.667 176 137 238C136.333 300 136.333 334.833 137 342.5C137.667 350.167 138.833 357.167 140.5 363.5C142.167 369.833 144.5 374.333 147.5 377C150.5 379.667 154.667 382.167 160 384.5C165.333 386.833 174 388.833 186 390.5C198 392.167 221.5 393.333 256.5 394C291.5 394.667 313.333 395.167 322 395.5C330.667 395.833 335.833 396.333 337.5 397C339.167 397.667 342 397.333 346 396C350 394.667 352.5 393.333 353.5 392C354.5 390.667 354.833 389.333 354.5 388C354.333 387.333 354.167 386.667 354 386C354.333 386 354.667 386 355 386C355.333 386 355.667 386 356 386C356 385.5 356 385 356 384.5C356 383.5 355.333 382.667 354 382C352.667 381.333 352.167 380 352.5 378C352.667 377 352.833 376 353 375C352.5 375 352 375 351.5 375C351 375 350.5 375 350 375C350.667 373.5 351.333 372 352 370.5C353.333 367.5 353.667 364 353 360C352.333 356 354 350.833 358 344.5C362 338.167 364.333 333.333 365 330C365.667 326.667 366 307 366 271C366 235 366.833 205 368.5 181C370.167 157 370.333 144.5 369 143.5C367.667 142.5 367 141 367 139C367 138 367 137 367 136C366.5 136.167 366 136.333 365.5 136.5C365 136.667 364.5 136.833 364 137C364 136.667 364 136.333 364 136C364 135.667 364 135.333 364 135C364.5 135 365 135 365.5 135C366.5 135 367.5 133.667 368.5 131C369.5 128.333 370.333 127 371 127C371.333 127 371.667 127 372 127C371.833 126.333 371.667 125.667 371.5 125C371.167 123.667 370.333 122.833 369 122.5C368.333 122.333 367.667 122.167 367 122C367.333 121.167 367.667 120.333 368 119.5C368.333 118.667 368.667 117.833 369 117C366.833 116.5 364.667 116 362.5 115.5C358.167 114.5 340 113 308 111C276 109 245.5 107.667 216.5 107C187.5 106.333 169.333 107.667 162 111ZM200 129.5C220 129.833 251.333 131.333 294 134C336.667 136.667 358 138.5 358 139.5C358 140.5 357.5 141.333 356.5 142C355.5 142.667 354.333 143.167 353 143.5C351.667 143.833 350.833 143.667 350.5 143C350.333 142.667 350.167 142.333 350 142C349.667 144 349.333 146 349 148C348.333 152 347.333 169.833 346 201.5C344.667 233.167 344 261.5 344 286.5C344 311.5 343.667 325.333 343 328C342.333 330.667 315 331.167 261 329.5C207 327.833 178.833 327.167 176.5 327.5C174.167 327.833 171.667 329 169 331C166.333 333 163.833 334.333 161.5 335C160.333 335.333 159.167 335.667 158 336C158.333 304 158.667 272 159 240C159.667 176 160.5 142.167 161.5 138.5C162.5 134.833 164.167 132.333 166.5 131C168.833 129.667 180 129.167 200 129.5ZM206.5 167C205.5 169 203.667 170.167 201 170.5C199.667 170.667 198.333 170.833 197 171C197.333 171.167 197.667 171.333 198 171.5C198.667 171.833 198.667 172.833 198 174.5C197.333 176.167 197.5 177.333 198.5 178C199.5 178.667 199.667 180 199 182C198.333 184 198.667 185.333 200 186C201.333 186.667 218.667 188 252 190C285.333 192 303.5 192.333 306.5 191C309.5 189.667 311.5 188.5 312.5 187.5C313.5 186.5 314 185.333 314 184C314 183.333 314 182.667 314 182C314.333 182 314.667 182 315 182C315.333 182 315.667 182 316 182C316 181.5 316 181 316 180.5C316 179.5 315.5 178.5 314.5 177.5C313.5 176.5 312.667 176.167 312 176.5C311.667 176.667 311.333 176.833 311 177C311.333 176 311.667 175 312 174C312.667 172 312.167 170.667 310.5 170C308.833 169.333 291.333 168.167 258 166.5C224.667 164.833 207.5 165 206.5 167ZM251.5 352.5C299.167 354.167 324.333 355.167 327 355.5C329.667 355.833 331 357.333 331 360C331 362.667 329.333 365.5 326 368.5C322.667 371.5 305.167 372.667 273.5 372C241.833 371.333 218.333 370 203 368C187.667 366 178.667 363.667 176 361C173.333 358.333 172 356.333 172 355C172 353.667 172.167 352.667 172.5 352C172.833 351.333 174.167 350.833 176.5 350.5C178.833 350.167 203.833 350.833 251.5 352.5Z" fill="#000000" fill-rule="nonzero" opacity="1" stroke="none"/>
</g>
</svg>
