<?xml version="1.0" encoding="UTF-8" standalone="no"?>
<!DOCTYPE svg PUBLIC "-//W3C//DTD SVG 1.1//EN" "http://www.w3.org/Graphics/SVG/1.1/DTD/svg11.dtd">
<!-- Created with Vectornator (http://vectornator.io/) -->
<svg height="100%" stroke-miterlimit="10" style="fill-rule:nonzero;clip-rule:evenodd;stroke-linecap:round;stroke-linejoin:round;" version="1.1" viewBox="0 0 500 500" width="100%" xml:space="preserve" xmlns="http://www.w3.org/2000/svg" xmlns:vectornator="http://vectornator.io" xmlns:xlink="http://www.w3.org/1999/xlink">
<defs/>
<g id="Layer-1" vectornator:layerName="Layer 1">
<path d="M326 67C321.333 67.6667 314.667 69.8333 306 73.5C297.333 77.1667 291 80.3333 287 83C283 85.6667 278.667 89.3333 274 94C269.333 98.6667 264.667 104.667 260 112C255.333 119.333 252 126.333 250 133C248 139.667 246.833 148 246.5 158C246.167 168 246.5 176.667 247.5 184C248.5 191.333 220.333 222.667 163 278C105.667 333.333 76.6667 361.833 76 363.5C75.3333 365.167 75.3333 367.833 76 371.5C76.6667 375.167 85 383.5 101 396.5C117 409.5 127 416.167 131 416.5C135 416.833 138.167 416.333 140.5 415C142.833 413.667 170.333 385.667 223 331C275.667 276.333 305.333 249.5 312 250.5C318.667 251.5 327 252 337 252C347 252 354.667 251.5 360 250.5C365.333 249.5 372.5 246.667 381.5 242C390.5 237.333 398.333 231.833 405 225.5C411.667 219.167 416 214.5 418 211.5C420 208.5 422.5 203.833 425.5 197.5C428.5 191.167 430.667 185.5 432 180.5C433.333 175.5 434 169.333 434 162C434 154.667 433.333 149.5 432 146.5C430.667 143.5 427.167 138.833 421.5 132.5C415.833 126.167 412.167 122.5 410.5 121.5C408.833 120.5 406.5 120 403.5 120C400.5 120 392.167 126.5 378.5 139.5C371.667 146 364.833 152.5 358 159C355 155.833 352 152.667 349 149.5C346 146.333 343 143.167 340 140C346 134.167 352 128.333 358 122.5C370 110.833 376.333 103.167 377 99.5C377.667 95.8333 377.667 93.1667 377 91.5C376.333 89.8333 372.667 86 366 80C359.333 74 354.5 70.3333 351.5 69C348.5 67.6667 344.667 66.8333 340 66.5C335.333 66.1667 330.667 66.3333 326 67ZM334.5 94C338.833 94 341.5 94.8333 342.5 96.5C343.5 98.1667 338 104.833 326 116.5C314 128.167 307.667 135.667 307 139C306.333 142.333 306.5 145.167 307.5 147.5C308.5 149.833 310.333 151.667 313 153C315.667 154.333 322.5 160.833 333.5 172.5C344.5 184.167 351.167 190.5 353.5 191.5C355.833 192.5 359 192.5 363 191.5C367 190.5 369.833 188.667 371.5 186C373.167 183.333 378.833 177.167 388.5 167.5C398.167 157.833 403.667 153.5 405 154.5C406.333 155.5 407 158.333 407 163C407 167.667 405.167 174.333 401.5 183C397.833 191.667 392.5 199.333 385.5 206C378.5 212.667 371.833 217.333 365.5 220C359.167 222.667 352 224.333 344 225C336 225.667 327.5 225.333 318.5 224C309.5 222.667 304.667 221.667 304 221C303.333 220.333 301 220.333 297 221C293 221.667 273.667 239.667 239 275C204.333 310.333 184.5 331 179.5 337C174.5 343 165 352.667 151 366C137 379.333 126.833 383.5 120.5 378.5C114.167 373.5 110.667 370.333 110 369C109.333 367.667 136.667 340.333 192 287C247.333 233.667 275.333 204.667 276 200C276.667 195.333 276.5 190.833 275.5 186.5C274.5 182.167 273.833 175.833 273.5 167.5C273.167 159.167 273.667 151.833 275 145.5C276.333 139.167 277.833 134.333 279.5 131C281.167 127.667 284.5 123.167 289.5 117.5C294.5 111.833 299.333 107.5 304 104.5C308.667 101.5 313.833 99 319.5 97C325.167 95 330.167 94 334.5 94Z" fill="#000000" fill-rule="nonzero" opacity="1" stroke="none"/>
</g>
</svg>
