<?xml version="1.0" encoding="UTF-8" standalone="no"?>
<!DOCTYPE svg PUBLIC "-//W3C//DTD SVG 1.1//EN" "http://www.w3.org/Graphics/SVG/1.1/DTD/svg11.dtd">
<!-- Created with Vectornator (http://vectornator.io/) -->
<svg height="100%" stroke-miterlimit="10" style="fill-rule:nonzero;clip-rule:evenodd;stroke-linecap:round;stroke-linejoin:round;" version="1.1" viewBox="0 0 500 500" width="100%" xml:space="preserve" xmlns="http://www.w3.org/2000/svg" xmlns:vectornator="http://vectornator.io" xmlns:xlink="http://www.w3.org/1999/xlink">
<defs/>
<g id="Layer-1" vectornator:layerName="Layer 1">
<path d="M121.5 45.5C118.5 47.8333 116.833 51.6667 116.5 57C116.167 62.3333 114.333 72.5 111 87.5C107.667 102.5 102 122.5 94 147.5C86 172.5 77 197.667 67 223C57 248.333 48.6667 267.5 42 280.5C35.3333 293.5 29.8333 303 25.5 309C21.1667 315 18.6667 319 18 321C17.3333 323 17.1667 325.667 17.5 329C17.8333 332.333 19 334.667 21 336C23 337.333 26.1667 337.833 30.5 337.5C34.8333 337.167 44.1667 338.5 58.5 341.5C72.8333 344.5 85.3333 347.833 96 351.5C106.667 355.167 119.5 361 134.5 369C149.5 377 163.167 384.833 175.5 392.5C187.833 400.167 201.333 407.5 216 414.5C230.667 421.5 244.5 427.5 257.5 432.5C270.5 437.5 284.5 441.667 299.5 445C314.5 448.333 327.667 450.667 339 452C350.333 453.333 358.5 454 363.5 454C368.5 454 371.667 453.667 373 453C374.333 452.333 377.333 449 382 443C386.667 437 392.667 427.167 400 413.5C407.333 399.833 417.333 377.333 430 346C442.667 314.667 451.667 291.167 457 275.5C462.333 259.833 467.333 242.833 472 224.5C476.667 206.167 479.333 194.833 480 190.5C480.667 186.167 481 181.333 481 176C481 170.667 480.667 167.167 480 165.5C479.333 163.833 477.833 162.167 475.5 160.5C473.167 158.833 462 157 442 155C422 153 406.167 150.333 394.5 147C382.833 143.667 365.667 137 343 127C320.333 117 298.667 105.833 278 93.5C257.333 81.1667 241.333 72.3333 230 67C218.667 61.6667 203 56.3333 183 51C163 45.6667 148.5 42.8333 139.5 42.5C130.5 42.1667 124.5 43.1667 121.5 45.5ZM162 67C178 70.3333 190.333 73.5 199 76.5C207.667 79.5 218.5 84.3333 231.5 91C244.5 97.6667 251.333 101.5 252 102.5C252.667 103.5 261.833 109 279.5 119C297.167 129 317.667 139 341 149C364.333 159 382.833 165.667 396.5 169C410.167 172.333 424.167 174.833 438.5 176.5C445.667 177.333 452.833 178.167 460 179C459.5 182.5 459 186 458.5 189.5C457.5 196.5 454.5 209.333 449.5 228C444.5 246.667 437.833 267.5 429.5 290.5C421.167 313.5 411.833 337 401.5 361C391.167 385 382.333 403 375 415C367.667 427 355 432 337 430C319 428 303.667 425.167 291 421.5C278.333 417.833 260.833 411 238.5 401C216.167 391 191.333 378.167 164 362.5C136.667 346.833 118 337.167 108 333.5C98 329.833 85 326.333 69 323C61 321.333 53 319.667 45 318C49.1667 310.333 53.3333 302.667 57.5 295C65.8333 279.667 74 262.167 82 242.5C90 222.833 98.1667 201.167 106.5 177.5C114.833 153.833 121.5 132.167 126.5 112.5C131.5 92.8333 134.333 79.6667 135 73C135.667 66.3333 136.333 62.8333 137 62.5C137.667 62.1667 146 63.6667 162 67ZM165.5 115C163.833 116.333 163 118 163 120C163 122 164.667 126 168 132C171.333 138 173.667 141.5 175 142.5C176.333 143.5 178 144 180 144C182 144 183.5 143.5 184.5 142.5C185.5 141.5 186 139.833 186 137.5C186 135.167 185.167 133.167 183.5 131.5C181.833 129.833 180.167 127 178.5 123C176.833 119 174.667 116.333 172 115C169.333 113.667 167.167 113.667 165.5 115ZM192 147C190 148.333 189 150 189 152C189 154 189.667 155.833 191 157.5C192.333 159.167 196.5 162 203.5 166C210.5 170 215.667 171.667 219 171C222.333 170.333 223.833 168.5 223.5 165.5C223.167 162.5 221 160.167 217 158.5C213 156.833 208.333 154.167 203 150.5C197.667 146.833 194 145.667 192 147ZM235.5 168.5C234.5 169.5 234 171 234 173C234 175 234.667 176.667 236 178C237.333 179.333 241.167 181 247.5 183C253.833 185 258.5 185.667 261.5 185C264.5 184.333 266.167 182.667 266.5 180C266.833 177.333 266.5 175.5 265.5 174.5C264.5 173.5 260.833 172 254.5 170C248.167 168 243.667 167 241 167C238.333 167 236.5 167.5 235.5 168.5ZM280.5 180.5C278.833 182.167 278.5 184.333 279.5 187C280.5 189.667 284.833 192.167 292.5 194.5C300.167 196.833 305.333 197.333 308 196C310.667 194.667 312 193.167 312 191.5C312 189.833 311.167 188.167 309.5 186.5C307.833 184.833 303 183 295 181C287 179 282.167 178.833 280.5 180.5ZM323 195C321.667 196.333 321 197.833 321 199.5C321 201.167 321.5 202.667 322.5 204C323.5 205.333 326 206.833 330 208.5C334 210.167 337.667 212.5 341 215.5C344.333 218.5 347.333 219.333 350 218C352.667 216.667 353.833 214.833 353.5 212.5C353.167 210.167 351.5 207.5 348.5 204.5C345.5 201.5 341.833 198.833 337.5 196.5C333.167 194.167 330 193 328 193C326 193 324.333 193.667 323 195ZM356 230C354.667 232.667 354.833 236.167 356.5 240.5C358.167 244.833 359 248.5 359 251.5C359 254.5 359.667 257 361 259C362.333 261 364 262 366 262C368 262 369.667 261.167 371 259.5C372.333 257.833 372.667 254 372 248C371.333 242 370.333 237.333 369 234C367.667 230.667 366.5 228.5 365.5 227.5C364.5 226.5 363 226 361 226C359 226 357.333 227.333 356 230ZM162.5 258C161.5 260.667 161.333 267 162 277C162.667 287 160.667 292.667 156 294C151.333 295.333 146.167 296.167 140.5 296.5C134.833 296.833 131.667 298.5 131 301.5C130.333 304.5 130.333 306.833 131 308.5C131.667 310.167 133 311.5 135 312.5C137 313.5 138 314.333 138 315C138 315.333 138 315.667 138 316C141.5 315.667 145 315.333 148.5 315C155.5 314.333 159.333 316.333 160 321C160.667 325.667 162.333 328.833 165 330.5C167.667 332.167 169.5 332.5 170.5 331.5C171.5 330.5 172.833 330.167 174.5 330.5C176.167 330.833 177.333 330.5 178 329.5C178.667 328.5 179.5 324.5 180.5 317.5C181.5 310.5 184.667 306.167 190 304.5C195.333 302.833 198.333 300.833 199 298.5C199.667 296.167 199.167 294.667 197.5 294C195.833 293.333 195.167 291.667 195.5 289C195.667 287.667 195.833 286.333 196 285C193.667 284.833 191.333 284.667 189 284.5C184.333 284.167 181.833 281 181.5 275C181.167 269 180.5 265.667 179.5 265C178.5 264.333 177.833 262.5 177.5 259.5C177.333 258 177.167 256.5 177 255C175.333 255.167 173.667 255.333 172 255.5C170.333 255.667 168.667 255.833 167 256C167 255.667 167 255.333 167 255C167 254.667 167 254.333 167 254C166.5 254 166 254 165.5 254C164.5 254 163.5 255.333 162.5 258ZM356 285C353.333 289.667 350.667 293.167 348 295.5C345.333 297.833 343.833 299.833 343.5 301.5C343.167 303.167 343.667 304.833 345 306.5C346.333 308.167 348.333 308.833 351 308.5C353.667 308.167 357.5 304.667 362.5 298C367.5 291.333 369.833 286.667 369.5 284C369.167 281.333 367.5 279.667 364.5 279C361.5 278.333 358.667 280.333 356 285ZM320.5 316.5C316.167 319.5 312.5 321.333 309.5 322C306.5 322.667 304.333 323.667 303 325C301.667 326.333 301 328.167 301 330.5C301 332.833 302.167 334.5 304.5 335.5C306.833 336.5 311.5 335.5 318.5 332.5C325.5 329.5 329.833 327.167 331.5 325.5C333.167 323.833 334.167 322.167 334.5 320.5C334.833 318.833 334.667 317.333 334 316C333.333 314.667 332 313.667 330 313C328 312.333 324.833 313.5 320.5 316.5ZM203.5 319C202.5 320.333 202.5 322.333 203.5 325C204.5 327.667 208.833 330.5 216.5 333.5C224.167 336.5 229.333 337.5 232 336.5C234.667 335.5 236.167 334 236.5 332C236.833 330 236.667 328.5 236 327.5C235.333 326.5 232.667 325.333 228 324C223.333 322.667 219.667 321.167 217 319.5C214.333 317.833 211.667 317 209 317C206.333 317 204.5 317.667 203.5 319ZM253 330.5C251.667 331.5 250.833 332.833 250.5 334.5C250.167 336.167 250.333 337.667 251 339C251.667 340.333 252.833 341.333 254.5 342C256.167 342.667 260.333 343 267 343C273.667 343 278.167 342.667 280.5 342C282.833 341.333 284.333 340.5 285 339.5C285.667 338.5 286 337 286 335C286 333 285.5 331.5 284.5 330.5C283.5 329.5 278.333 329 269 329C259.667 329 254.333 329.5 253 330.5Z" fill="#000000" fill-rule="nonzero" opacity="1" stroke="none"/>
</g>
</svg>
