<?xml version="1.0" encoding="UTF-8" standalone="no"?>
<!DOCTYPE svg PUBLIC "-//W3C//DTD SVG 1.1//EN" "http://www.w3.org/Graphics/SVG/1.1/DTD/svg11.dtd">
<!-- Created with Vectornator (http://vectornator.io/) -->
<svg height="100%" stroke-miterlimit="10" style="fill-rule:nonzero;clip-rule:evenodd;stroke-linecap:round;stroke-linejoin:round;" version="1.1" viewBox="0 0 500 500" width="100%" xml:space="preserve" xmlns="http://www.w3.org/2000/svg" xmlns:vectornator="http://vectornator.io" xmlns:xlink="http://www.w3.org/1999/xlink">
<defs/>
<g id="Layer-1" vectornator:layerName="Layer 1">
<path d="M117 117.5C116 118 115 118.5 114 119C114.333 119.667 114.667 120.333 115 121C115.667 122.333 115.5 123.833 114.5 125.5C114 126.333 113.5 127.167 113 128C112.667 127.667 112.333 127.333 112 127C111.667 126.667 111.333 126.333 111 126C110.667 126.5 110.333 127 110 127.5C109.333 128.5 108 131.333 106 136C104 140.667 99.6667 152.5 93.0001 171.5C86.3334 190.5 81.5001 206.833 78.5001 220.5C75.5001 234.167 73.3334 247.667 72.0001 261C70.6667 274.333 70.6667 283.333 72.0001 288C73.3334 292.667 75.6667 298.167 79.0001 304.5C82.3334 310.833 88.6667 317.333 98.0001 324C107.333 330.667 118.333 336.667 131 342C143.667 347.333 166.833 355 200.5 365C234.167 375 264 382.333 290 387C316 391.667 333.333 393.833 342 393.5C350.667 393.167 358.667 391.333 366 388C373.333 384.667 379.167 380.667 383.5 376C387.833 371.333 391.833 365.833 395.5 359.5C399.167 353.167 402.333 346.333 405 339C407.667 331.667 410.167 322.167 412.5 310.5C414.833 298.833 418.333 275 423 239C427.667 203 430 181.833 430 175.5C430 169.167 429.333 164.667 428 162C426.667 159.333 424.667 157 422 155C419.333 153 417.667 151.167 417 149.5C416.333 147.833 414 145.5 410 142.5C406 139.5 400.333 137.333 393 136C385.667 134.667 356.667 132 306 128C255.333 124 211.667 121 175 119C138.333 117 119 116.5 117 117.5ZM131 128C143.667 131.5 156.333 135 169 138.5C194.333 145.5 236.667 154 296 164C325.667 169 355.333 174 385 179C377 183.5 369 188 361 192.5C345 201.5 335.5 206.5 332.5 207.5C329.5 208.5 327.667 209.5 327 210.5C326.333 211.5 315.667 217.167 295 227.5C274.333 237.833 260.833 244.5 254.5 247.5C248.167 250.5 243.5 252.167 240.5 252.5C237.5 252.833 235.333 252.833 234 252.5C232.667 252.167 230.833 250.5 228.5 247.5C226.167 244.5 215.667 227.5 197 196.5C178.333 165.5 166.833 147.667 162.5 143C158.167 138.333 154 136.333 150 137C148 137.333 146 137.667 144 138C144.167 138.833 144.333 139.667 144.5 140.5C144.833 142.167 144.333 143.667 143 145C141.667 146.333 140.5 146.833 139.5 146.5C139 146.333 138.5 146.167 138 146C138 148 138 150 138 152C138 156 141.333 165.333 148 180C154.667 194.667 165.667 216 181 244C196.333 272 205.667 287.667 209 291C212.333 294.333 216 296.667 220 298C224 299.333 228.167 299.833 232.5 299.5C236.833 299.167 244.5 296 255.5 290C266.5 284 283.5 272.5 306.5 255.5C329.5 238.5 349.5 222.333 366.5 207C375 199.333 383.5 191.667 392 184C390 202.167 388 220.333 386 238.5C382 274.833 378.833 298.167 376.5 308.5C374.167 318.833 371.167 328 367.5 336C363.833 344 360.5 348.5 357.5 349.5C354.5 350.5 350.333 351 345 351C339.667 351 331.333 350.333 320 349C308.667 347.667 291 344.333 267 339C243 333.667 219.167 327.167 195.5 319.5C171.833 311.833 154.167 305.5 142.5 300.5C130.833 295.5 122.5 291.333 117.5 288C112.5 284.667 109.333 282.167 108 280.5C106.667 278.833 106.5 271.167 107.5 257.5C108.5 243.833 112.667 218.833 120 182.5C123.667 164.333 127.333 146.167 131 128ZM88.0001 194C87.6667 195.667 87.3334 197.333 87.0001 199C86.6667 200.667 86.3334 202.333 86.0001 204C86.3334 202.333 86.6667 200.667 87.0001 199C87.3334 197.333 87.6667 195.667 88.0001 194ZM376 321C376.167 321.833 376.333 322.667 376.5 323.5C376.833 325.167 376.5 326.667 375.5 328C375 328.667 374.5 329.333 374 330C374.333 328.5 374.667 327 375 325.5C375.333 324 375.667 322.5 376 321Z" fill="#000000" fill-rule="nonzero" opacity="1" stroke="none"/>
</g>
</svg>
