<?xml version="1.0" encoding="UTF-8" standalone="no"?>
<!DOCTYPE svg PUBLIC "-//W3C//DTD SVG 1.1//EN" "http://www.w3.org/Graphics/SVG/1.1/DTD/svg11.dtd">
<!-- Created with Vectornator (http://vectornator.io/) -->
<svg height="100%" stroke-miterlimit="10" style="fill-rule:nonzero;clip-rule:evenodd;stroke-linecap:round;stroke-linejoin:round;" version="1.1" viewBox="0 0 669 500" width="100%" xml:space="preserve" xmlns="http://www.w3.org/2000/svg" xmlns:vectornator="http://vectornator.io" xmlns:xlink="http://www.w3.org/1999/xlink">
<defs/>
<g id="Layer-1" vectornator:layerName="Layer 1">
<path d="M594.5 17C586.833 17.6667 582.5 18.3333 581.5 19C580.5 19.6667 580 20.5 580 21.5C580 22.5 578.5 23.1667 575.5 23.5C572.5 23.8333 571 25.1667 571 27.5C571 29.8333 571.333 31.3333 572 32C572.667 32.6667 572.833 34 572.5 36C572.167 38 572.833 39.5 574.5 40.5C576.167 41.5 584.167 42.8333 598.5 44.5C612.833 46.1667 621 48.6667 623 52C625 55.3333 626.667 60.8333 628 68.5C629.333 76.1667 630.167 107.5 630.5 162.5C630.833 217.5 630.667 253.5 630 270.5C629.333 287.5 627.833 317.167 625.5 359.5C623.167 401.833 621.5 425.5 620.5 430.5C619.5 435.5 618 439.333 616 442C614 444.667 611.667 446.5 609 447.5C606.333 448.5 599.5 449.667 588.5 451C577.5 452.333 509.833 452.667 385.5 452C261.167 451.333 181.833 451.5 147.5 452.5C113.167 453.5 92.8333 453.5 86.5 452.5C80.1667 451.5 74.5 449.667 69.5 447C64.5 444.333 60.8333 441.5 58.5 438.5C56.1667 435.5 54 431.667 52 427C50 422.333 47.8333 412.5 45.5 397.5C43.1667 382.5 42 350.167 42 300.5C42 250.833 42.5 213.167 43.5 187.5C44.5 161.833 46.1667 137.167 48.5 113.5C50.8333 89.8333 52.5 75.3333 53.5 70C54.5 64.6667 55.8333 60.8333 57.5 58.5C59.1667 56.1667 61.6667 54.1667 65 52.5C68.3333 50.8333 74.3333 49.3333 83 48C91.6667 46.6667 114.667 46.1667 152 46.5C189.333 46.8333 227.167 48.1667 265.5 50.5C303.833 52.8333 342.667 53.6667 382 53C421.333 52.3333 459.167 50.3333 495.5 47C531.833 43.6667 551.333 41.5 554 40.5C556.667 39.5 558.167 38.1667 558.5 36.5C558.833 34.8333 559.333 34 560 34C560.333 34 560.667 34 561 34C560.5 33.5 560 33 559.5 32.5C558.5 31.5 558.167 30.3333 558.5 29C558.667 28.3333 558.833 27.6667 559 27C558.333 26.8333 557.667 26.6667 557 26.5C555.667 26.1667 521.167 26.1667 453.5 26.5C385.833 26.8333 327.833 25.8333 279.5 23.5C231.167 21.1667 190.167 19.8333 156.5 19.5C122.833 19.1667 100.5 19.6667 89.5 21C78.5 22.3333 68 25.3333 58 30C48 34.6667 41.5 38.6667 38.5 42C35.5 45.3333 33 50.3333 31 57C29 63.6667 27.1667 74.8333 25.5 90.5C23.8333 106.167 22.5 126.333 21.5 151C20.5 175.667 19.6667 219.667 19 283C18.3333 346.333 19.1667 387.333 21.5 406C23.8333 424.667 25.8333 436.667 27.5 442C29.1667 447.333 31.5 452.5 34.5 457.5C37.5 462.5 41 466.667 45 470C49 473.333 53.3333 475.833 58 477.5C62.6667 479.167 74.1667 480.333 92.5 481C110.833 481.667 142.167 481 186.5 479C230.833 477 307.5 476.5 416.5 477.5C525.5 478.5 585.667 478.167 597 476.5C608.333 474.833 617.333 472.167 624 468.5C630.667 464.833 636.167 459.667 640.5 453C644.833 446.333 647.5 438.833 648.5 430.5C649.5 422.167 651.167 381.333 653.5 308C655.833 234.667 656.833 178.167 656.5 138.5C656.167 98.8333 655.5 74.3333 654.5 65C653.5 55.6667 651.333 46.3333 648 37C644.667 27.6667 641.167 22.1667 637.5 20.5C633.833 18.8333 627.667 17.6667 619 17C610.333 16.3333 602.167 16.3333 594.5 17ZM46 38C44.1667 40.1667 42.3333 42.3333 40.5 44.5C38.6667 46.6667 36.8333 48.8333 35 51C35.5 50 36 49 36.5 48C37.5 46 39.3333 43.8333 42 41.5C43.3333 40.3333 44.6667 39.1667 46 38ZM221 68.5C213.667 70.1667 207 73.3333 201 78C195 82.6667 190.667 87.1667 188 91.5C185.333 95.8333 182.667 102.5 180 111.5C177.333 120.5 176.333 130.5 177 141.5C177.667 152.5 179.333 162.167 182 170.5C184.667 178.833 188 186.667 192 194C196 201.333 201.167 207.5 207.5 212.5C210.667 215 213.833 217.5 217 220C212.833 221.167 208.667 222.333 204.5 223.5C196.167 225.833 186.667 227 176 227C165.333 227 152.833 225.667 138.5 223C124.167 220.333 113.667 217.833 107 215.5C100.333 213.167 93.3333 210 86 206C78.6667 202 74.1667 200.167 72.5 200.5C71.6667 200.667 70.8333 200.833 70 201C70.3333 202 70.6667 203 71 204C71.6667 206 74 208.667 78 212C82 215.333 88 218.833 96 222.5C104 226.167 113.5 229.667 124.5 233C135.5 236.333 145.667 238.833 155 240.5C164.333 242.167 172.333 243.167 179 243.5C185.667 243.833 193.333 243.333 202 242C210.667 240.667 217.667 239 223 237C228.333 235 234.5 231.667 241.5 227C248.5 222.333 255 216.667 261 210C267 203.333 272.333 195.833 277 187.5C281.667 179.167 285 171.167 287 163.5C289 155.833 290.167 146.333 290.5 135C290.833 123.667 290.333 115.167 289 109.5C287.667 103.833 286.167 99.3333 284.5 96C282.833 92.6667 280.333 89.1667 277 85.5C273.667 81.8333 268.333 78 261 74C253.667 70 247 67.6667 241 67C235 66.3333 228.333 66.8333 221 68.5ZM245 87.5C248.333 87.8333 251.5 88.8333 254.5 90.5C257.5 92.1667 260.833 95.3333 264.5 100C268.167 104.667 270.667 110.833 272 118.5C273.333 126.167 273.667 133.833 273 141.5C272.333 149.167 270.333 157.167 267 165.5C263.667 173.833 260.5 180.167 257.5 184.5C254.5 188.833 249.833 194.167 243.5 200.5C237.167 206.833 231.167 211.5 225.5 214.5C222.667 216 219.833 217.5 217 219C217.167 218.167 217.333 217.333 217.5 216.5C217.833 214.833 216.333 210.5 213 203.5C209.667 196.5 206.5 187.667 203.5 177C200.5 166.333 198.5 155.333 197.5 144C196.5 132.667 197.167 124 199.5 118C201.833 112 204.667 107 208 103C211.333 99 215 95.8333 219 93.5C223 91.1667 227.5 89.5 232.5 88.5C237.5 87.5 241.667 87.1667 245 87.5ZM432 100.5C426 102.167 420.833 105 416.5 109C412.167 113 408.167 120 404.5 130C400.833 140 399 149.667 399 159C399 168.333 400 176.667 402 184C404 191.333 406.833 198.333 410.5 205C414.167 211.667 417.5 217 420.5 221C423.5 225 426.5 227.333 429.5 228C431 228.333 432.5 228.667 434 229C434.167 227.167 434.333 225.333 434.5 223.5C434.833 219.833 433.833 215.5 431.5 210.5C429.167 205.5 426.833 197.667 424.5 187C422.167 176.333 420.833 168.667 420.5 164C420.167 159.333 420.333 155.167 421 151.5C421.667 147.833 423.333 143.5 426 138.5C428.667 133.5 432 129.667 436 127C440 124.333 444 122.833 448 122.5C452 122.167 456 122.667 460 124C464 125.333 466.667 127 468 129C469.333 131 470.5 134.167 471.5 138.5C472.5 142.833 472.833 149 472.5 157C472.167 165 470.667 173.167 468 181.5C465.333 189.833 461.667 197.5 457 204.5C452.333 211.5 446.833 218.167 440.5 224.5C434.167 230.833 427.333 236.5 420 241.5C412.667 246.5 405.833 250.5 399.5 253.5C393.167 256.5 385.167 259.167 375.5 261.5C365.833 263.833 356.167 265 346.5 265C336.833 265 327.5 264.333 318.5 263C309.5 261.667 299 259.167 287 255.5C275 251.833 265 247.5 257 242.5C249 237.5 243.667 234.833 241 234.5C239.667 234.333 238.333 234.167 237 234C237.167 234.833 237.333 235.667 237.5 236.5C237.833 238.167 237.5 239.167 236.5 239.5C235.5 239.833 234.833 240.667 234.5 242C234.167 243.333 234.667 245.167 236 247.5C237.333 249.833 241.5 253.5 248.5 258.5C255.5 263.5 261.167 266.833 265.5 268.5C267.667 269.333 269.833 270.167 272 271C271.167 271.667 270.333 272.333 269.5 273C267.833 274.333 267 278.5 267 285.5C267 292.5 267.5 297.5 268.5 300.5C269 302 269.5 303.5 270 305C270.833 304.333 271.667 303.667 272.5 303C274.167 301.667 275 296.667 275 288C275 279.333 274.5 274.5 273.5 273.5C273 273 272.5 272.5 272 272C280.833 274.167 289.667 276.333 298.5 278.5C316.167 282.833 329.167 285.333 337.5 286C345.833 286.667 354.5 286.667 363.5 286C372.5 285.333 381.167 283.833 389.5 281.5C397.833 279.167 405.833 276.167 413.5 272.5C421.167 268.833 428.833 264.333 436.5 259C444.167 253.667 450.5 248.5 455.5 243.5C460.5 238.5 465.833 231.833 471.5 223.5C477.167 215.167 481.5 207.5 484.5 200.5C487.5 193.5 489.833 186.167 491.5 178.5C493.167 170.833 494 162 494 152C494 142 493 134 491 128C489 122 486.667 117.5 484 114.5C481.333 111.5 476.5 108.333 469.5 105C462.5 101.667 456 99.6667 450 99C444 98.3333 438 98.8333 432 100.5ZM478 112C479.167 113.167 480.333 114.333 481.5 115.5C482.667 116.667 483.833 117.833 485 119C483.833 117.833 482.667 116.667 481.5 115.5C480.333 114.333 479.167 113.167 478 112ZM293.5 140C292.5 140.667 292 141.667 292 143C292 144.333 294.833 154.333 300.5 173C306.167 191.667 311.833 208.833 317.5 224.5C323.167 240.167 327 249.833 329 253.5C331 257.167 332.5 259.167 333.5 259.5C334 259.667 334.5 259.833 335 260C334.5 256 334 252 333.5 248C332.5 240 327 221.167 317 191.5C307 161.833 301.333 145.667 300 143C298.667 140.333 297.5 139 296.5 139C295.5 139 294.5 139.333 293.5 140ZM169 143.5C167.667 144.5 163.167 152.833 155.5 168.5C147.833 184.167 142.5 196.5 139.5 205.5C138 210 136.5 214.5 135 219C135.667 218.833 136.333 218.667 137 218.5C138.333 218.167 139.667 217.167 141 215.5C142.333 213.833 146.333 207 153 195C159.667 183 165 172 169 162C173 152 174.833 146.167 174.5 144.5C174.167 142.833 173.5 142 172.5 142C171.5 142 170.333 142.5 169 143.5ZM497.5 161C497.167 163.667 500.667 174.833 508 194.5C515.333 214.167 521.667 229.667 527 241C532.333 252.333 536 258.667 538 260C539 260.667 540 261.333 541 262C540 257.5 539 253 538 248.5C536 239.5 532.167 227.167 526.5 211.5C520.833 195.833 515.833 183.167 511.5 173.5C507.167 163.833 503.833 158.667 501.5 158C500.333 157.667 499.167 157.333 498 157C497.833 158.333 497.667 159.667 497.5 161ZM390.5 167C388.167 169.667 382.167 179.667 372.5 197C362.833 214.333 356.167 226.833 352.5 234.5C348.833 242.167 346.5 248.167 345.5 252.5C345 254.667 344.5 256.833 344 259C344.833 258.5 345.667 258 346.5 257.5C348.167 256.5 351 253.167 355 247.5C359 241.833 364.833 232.167 372.5 218.5C380.167 204.833 386.167 193.167 390.5 183.5C394.833 173.833 397 168 397 166C397 165 397 164 397 163C396.5 163 396 163 395.5 163C394.5 163 392.833 164.333 390.5 167ZM189 203C187.667 204.333 187 207.333 187 212C187 216.667 187.333 219.667 188 221C188.667 222.333 189.667 223 191 223C192.333 223 193.5 221.667 194.5 219C195.5 216.333 195.667 212.667 195 208C194.333 203.333 193.5 201 192.5 201C191.5 201 190.333 201.667 189 203ZM270 207C268.667 208.333 267.833 210.667 267.5 214C267.167 217.333 267.167 222 267.5 228C267.833 234 268.5 238.5 269.5 241.5C270 243 270.5 244.5 271 246C271.5 245.833 272 245.667 272.5 245.5C273.5 245.167 274.333 243.5 275 240.5C275.667 237.5 276 231.667 276 223C276 214.333 275.333 209.167 274 207.5C273.333 206.667 272.667 205.833 272 205C271.333 205.667 270.667 206.333 270 207ZM411.5 221.5C409.833 222.5 409 225.333 409 230C409 234.667 409.5 238 410.5 240C411.5 242 412.667 243 414 243C415.333 243 416.5 242.333 417.5 241C418.5 239.667 419 236.5 419 231.5C419 226.5 418.667 223.333 418 222C417.333 220.667 416.5 220 415.5 220C414.5 220 413.167 220.5 411.5 221.5ZM480.5 221.5C480.167 222.5 479.333 223 478 223C477.333 223 476.667 223 476 223C476.333 227.5 476.667 232 477 236.5C477.333 241 477.667 245.5 478 250C478.833 249.833 479.667 249.667 480.5 249.5C482.167 249.167 483.5 246.667 484.5 242C485.5 237.333 485.833 233.167 485.5 229.5C485.167 225.833 484.333 223.333 483 222C482.333 221.333 481.667 220.667 481 220C480.833 220.5 480.667 221 480.5 221.5ZM605 232C600.333 234 596.167 236.667 592.5 240C588.833 243.333 583.333 247.333 576 252C568.667 256.667 560.5 260.5 551.5 263.5C542.5 266.5 532.833 268.167 522.5 268.5C512.167 268.833 504.667 268.667 500 268C495.333 267.333 490.5 266.167 485.5 264.5C480.5 262.833 475.167 260.167 469.5 256.5C463.833 252.833 460 251 458 251C457 251 456 251 455 251C455.167 251.667 455.333 252.333 455.5 253C455.667 253.667 455.833 254.333 456 255C455.667 255 455.333 255 455 255C454.333 255 453.833 255.667 453.5 257C453.167 258.333 455.167 261.333 459.5 266C463.833 270.667 470.167 275 478.5 279C486.833 283 496.167 285.833 506.5 287.5C516.833 289.167 528.167 289.667 540.5 289C552.833 288.333 564.333 285.833 575 281.5C585.667 277.167 595 271.833 603 265.5C611 259.167 615.667 254.833 617 252.5C618.333 250.167 619.333 246.167 620 240.5C620.667 234.833 619.5 231.5 616.5 230.5C613.5 229.5 609.667 230 605 232ZM123 239.5C121.667 240.5 117.667 248 111 262C104.333 276 100.167 286.333 98.5 293C97.6667 296.333 96.8333 299.667 96 303C96.5 303 97 303 97.5 303C98.5 303 99.8333 302 101.5 300C103.167 298 106.5 292 111.5 282C116.5 272 120.667 263 124 255C127.333 247 128.833 242.333 128.5 241C128.167 239.667 127.5 238.833 126.5 238.5C125.5 238.167 124.333 238.5 123 239.5ZM151.5 247C149.833 248.333 149 256.167 149 270.5C149 284.833 149.333 294.167 150 298.5C150.333 300.667 150.667 302.833 151 305C151.833 304.667 152.667 304.333 153.5 304C155.167 303.333 156.333 300.833 157 296.5C157.667 292.167 158.167 283.5 158.5 270.5C158.833 257.5 158.667 250.167 158 248.5C157.333 246.833 156.5 245.833 155.5 245.5C154.5 245.167 153.167 245.667 151.5 247ZM190 251C188.667 252.333 187.833 257 187.5 265C187.167 273 187.333 280.833 188 288.5C188.667 296.167 189.333 301.167 190 303.5C190.667 305.833 191.5 307.167 192.5 307.5C193.5 307.833 194.5 306.833 195.5 304.5C196.5 302.167 197.167 297.5 197.5 290.5C197.833 283.5 197.833 275.333 197.5 266C197.167 256.667 196.833 251.5 196.5 250.5C196.167 249.5 195.333 249 194 249C192.667 249 191.333 249.667 190 251ZM233 255C233 255.667 232.333 256.167 231 256.5C229.667 256.833 229 262.5 229 273.5C229 284.5 229.333 292.5 230 297.5C230.667 302.5 231.5 305.5 232.5 306.5C233 307 233.5 307.5 234 308C234.667 304.833 235.333 301.667 236 298.5C237.333 292.167 238 283.667 238 273C238 262.333 237.667 256.5 237 255.5C236.333 254.5 235.5 254 234.5 254C234 254 233.5 254 233 254C233 254.333 233 254.667 233 255ZM415 277.5C413.667 278.5 413.333 282.5 414 289.5C414.667 296.5 415.667 300 417 300C418.333 300 419.5 299.333 420.5 298C421.5 296.667 422 293.333 422 288C422 282.667 421.667 279.333 421 278C420.333 276.667 419.5 276 418.5 276C417.5 276 416.333 276.5 415 277.5ZM448.5 279C446.833 281 446 294.167 446 318.5C446 342.833 446.667 359.667 448 369C448.667 373.667 449.333 378.333 450 383C450.5 382.833 451 382.667 451.5 382.5C452.5 382.167 453.5 379.333 454.5 374C455.5 368.667 456 352 456 324C456 296 455.667 281 455 279C454.333 277 453.5 276 452.5 276C451.5 276 450.167 277 448.5 279ZM308.5 284.5C308.167 285.5 307.333 286 306 286C305.333 286 304.667 286 304 286C304 288.333 304 290.667 304 293C304 297.667 304.5 300.833 305.5 302.5C306.5 304.167 307.5 305 308.5 305C309.5 305 310.667 304 312 302C313.333 300 314 297 314 293C314 289 313.167 286.333 311.5 285C310.667 284.333 309.833 283.667 309 283C308.833 283.5 308.667 284 308.5 284.5ZM380 287.5C379.333 288.5 378.5 289 377.5 289C377 289 376.5 289 376 289C376.167 291.333 376.333 293.667 376.5 296C376.833 300.667 377.333 303.333 378 304C378.667 304.667 379.667 305 381 305C382.333 305 383.667 304.167 385 302.5C386.333 300.833 386.667 297.667 386 293C385.333 288.333 384.333 286 383 286C381.667 286 380.667 286.5 380 287.5ZM339.5 291C337.833 292.333 337.5 295 338.5 299C339 301 339.5 303 340 305C340.667 304.833 341.333 304.667 342 304.5C343.333 304.167 344.5 303.333 345.5 302C346.5 300.667 346.833 298.333 346.5 295C346.167 291.667 345.333 289.833 344 289.5C342.667 289.167 341.167 289.667 339.5 291ZM479 292.5C477.667 293.5 476.833 294.833 476.5 296.5C476.167 298.167 476 308.167 476 326.5C476 344.833 476.667 358.667 478 368C478.667 372.667 479.333 377.333 480 382C480.667 381.5 481.333 381 482 380.5C483.333 379.5 484.5 374.167 485.5 364.5C486.5 354.833 486.833 341 486.5 323C486.167 305 485.667 295.167 485 293.5C484.333 291.833 483.5 291 482.5 291C481.5 291 480.333 291.5 479 292.5ZM520.5 299C518.833 301 518 311.833 518 331.5C518 351.167 518.5 364.333 519.5 371C520 374.333 520.5 377.667 521 381C521.667 380.833 522.333 380.667 523 380.5C524.333 380.167 525.5 377.5 526.5 372.5C527.5 367.5 528 354.5 528 333.5C528 312.5 527.667 301.167 527 299.5C526.333 297.833 525.5 296.833 524.5 296.5C523.5 296.167 522.167 297 520.5 299ZM552.5 300.5C552.167 302.833 555.667 313.167 563 331.5C570.333 349.833 575.5 361.833 578.5 367.5C581.5 373.167 583.833 376.333 585.5 377C586.333 377.333 587.167 377.667 588 378C587.5 374.5 587 371 586.5 367.5C585.5 360.5 581.5 348.167 574.5 330.5C567.5 312.833 563 302.833 561 300.5C559 298.167 557.167 297 555.5 297C553.833 297 552.833 298.167 552.5 300.5ZM63 309.5C59.6667 309.833 57.5 310.5 56.5 311.5C56 312 55.5 312.5 55 313C59.1667 314 63.3333 315 67.5 316C75.8333 318 85.1667 319.667 95.5 321C105.833 322.333 110.5 329.167 109.5 341.5C108.5 353.833 107.833 370.5 107.5 391.5C107.167 412.5 107.5 425.333 108.5 430C109.5 434.667 111.167 437 113.5 437C115.833 437 117.5 436.167 118.5 434.5C119.5 432.833 120.5 428.167 121.5 420.5C122.5 412.833 123.5 395 124.5 367C125.5 339 130.833 324.833 140.5 324.5C150.167 324.167 156.333 322.833 159 320.5C161.667 318.167 162.833 316.333 162.5 315C162.167 313.667 161.5 312.667 160.5 312C159.5 311.333 155.333 310.833 148 310.5C140.667 310.167 125.5 309.833 102.5 309.5C79.5 309.167 66.3333 309.167 63 309.5ZM173.5 311C172.5 312.333 171.333 313 170 313C168.667 313 167.667 316.833 167 324.5C166.333 332.167 165.5 336.333 164.5 337C163.5 337.667 163 338.5 163 339.5C163 340.5 163.5 341.167 164.5 341.5C165.5 341.833 166.5 348.167 167.5 360.5C168.5 372.833 169.667 379.167 171 379.5C172.333 379.833 173.167 379.667 173.5 379C173.833 378.333 175.167 372.5 177.5 361.5C179.833 350.5 183.167 345.167 187.5 345.5C191.833 345.833 194.167 350.333 194.5 359C194.833 367.667 195.5 372.833 196.5 374.5C197.5 376.167 198.667 377 200 377C201.333 377 203 375.5 205 372.5C207 369.5 208.333 364.333 209 357C209.667 349.667 211.167 345 213.5 343C214.667 342 215.833 341 217 340C216.5 339.5 216 339 215.5 338.5C214.5 337.5 214.167 336.5 214.5 335.5C214.833 334.5 214.167 333.667 212.5 333C210.833 332.333 210 329.333 210 324C210 318.667 209.5 315 208.5 313C207.5 311 205.333 310.5 202 311.5C198.667 312.5 196.667 315.833 196 321.5C195.333 327.167 192.667 330.167 188 330.5C185.667 330.667 183.333 330.833 181 331C180.833 328.167 180.667 325.333 180.5 322.5C180.167 316.833 179.167 313.167 177.5 311.5C176.667 310.667 175.833 309.833 175 309C174.5 309.667 174 310.333 173.5 311ZM245 310C243 310.667 241.333 311.833 240 313.5C239.333 314.333 238.667 315.167 238 316C237.833 315.667 237.667 315.333 237.5 315C237.333 314.667 237.167 314.333 237 314C236.667 314.167 236.333 314.333 236 314.5C235.333 314.833 234.833 320.333 234.5 331C234.167 341.667 234.167 350.833 234.5 358.5C234.833 366.167 235.333 370.167 236 370.5C236.333 370.667 236.667 370.833 237 371C236.667 371.5 236.333 372 236 372.5C235.333 373.5 235.333 374.333 236 375C236.667 375.667 242.5 375.833 253.5 375.5C264.5 375.167 271.167 374 273.5 372C275.833 370 276.333 367.667 275 365C273.667 362.333 271.833 360.667 269.5 360C267.167 359.333 263 359.167 257 359.5C254 359.667 251 359.833 248 360C248 359.167 248 358.333 248 357.5C248 355.833 248.333 353.667 249 351C249.667 348.333 252.667 346.833 258 346.5C263.333 346.167 267 344.833 269 342.5C271 340.167 271.5 337.833 270.5 335.5C269.5 333.167 266 332 260 332C257 332 254 332 251 332C251 331 251 330 251 329C251 328 251 327 251 326C253.833 326 256.667 326 259.5 326C265.167 326 269.167 325.333 271.5 324C273.833 322.667 275.167 321.167 275.5 319.5C275.833 317.833 274.833 316 272.5 314C270.167 312 265.5 310.667 258.5 310C251.5 309.333 247 309.333 245 310ZM397 310C395 310.667 393.667 311.667 393 313C392.333 314.333 391.333 314.833 390 314.5C389.333 314.333 388.667 314.167 388 314C387.833 314.667 387.667 315.333 387.5 316C387.167 317.333 387.167 327.5 387.5 346.5C387.833 365.5 393.667 375 405 375C416.333 375 423.167 374 425.5 372C427.833 370 428.5 367.667 427.5 365C426.5 362.333 421.667 360.667 413 360C404.333 359.333 400 358.667 400 358C400 357.333 400.333 355.333 401 352C401.667 348.667 404.667 346.833 410 346.5C415.333 346.167 419 344.833 421 342.5C423 340.167 423.667 337.833 423 335.5C422.333 333.167 419 331.833 413 331.5C407 331.167 404 330.167 404 328.5C404 327.667 404 326.833 404 326C406.667 326 409.333 326 412 326C417.333 326 421 325.5 423 324.5C425 323.5 426.5 322.167 427.5 320.5C428.5 318.833 428 316.833 426 314.5C424 312.167 419.167 310.667 411.5 310C403.833 309.333 399 309.333 397 310ZM310.5 315.5C307.5 317.833 305.167 320.5 303.5 323.5C301.833 326.5 299.167 333.5 295.5 344.5C291.833 355.5 289.833 363.5 289.5 368.5C289.333 371 289.167 373.5 289 376C290 376 291 376 292 376C294 376 295.833 375 297.5 373C299.167 371 302.5 363.5 307.5 350.5C310 344 312.5 337.5 315 331C317 333.167 319 335.333 321 337.5C325 341.833 328.333 344 331 344C333.667 344 337.667 342 343 338C345.667 336 348.333 334 351 332C351.5 334.5 352 337 352.5 339.5C353.5 344.5 355.5 350.833 358.5 358.5C361.5 366.167 363.667 370.667 365 372C366.333 373.333 368 374.167 370 374.5C372 374.833 373.5 374.167 374.5 372.5C375.5 370.833 376 368.833 376 366.5C376 364.167 373.5 354.833 368.5 338.5C363.5 322.167 359.167 313.833 355.5 313.5C351.833 313.167 349.5 313.667 348.5 315C347.5 316.333 346.167 317 344.5 317C342.833 317 341.333 318.167 340 320.5C338.667 322.833 337.333 324.333 336 325C334.667 325.667 332 323.667 328 319C324 314.333 320.833 312 318.5 312C316.167 312 313.5 313.167 310.5 315.5ZM577 385.5C576.333 386.5 575.333 387 574 387C573.333 387 572.667 387 572 387C572 388.333 572 389.667 572 391C572 393.667 573.333 395.333 576 396C578.667 396.667 580.167 401.667 580.5 411C580.833 420.333 581.333 426.167 582 428.5C582.667 430.833 583.5 432 584.5 432C585.5 432 586.833 428.833 588.5 422.5C590.167 416.167 590.833 410.333 590.5 405C590.167 399.667 592.333 396.5 597 395.5C601.667 394.5 604.333 393.167 605 391.5C605.667 389.833 604.5 388.333 601.5 387C598.5 385.667 593.833 384.833 587.5 384.5C581.167 384.167 577.667 384.5 577 385.5ZM171.5 387.5C169.167 389.167 167.667 389.833 167 389.5C166.667 389.333 166.333 389.167 166 389C165.667 390 165.333 391 165 392C164.333 394 163.833 401.333 163.5 414C163.167 426.667 163.333 433.833 164 435.5C164.667 437.167 165.5 438 166.5 438C167.5 438 168.667 437 170 435C171.333 433 172.5 429 173.5 423C174.5 417 177.167 414 181.5 414C185.833 414 189.333 413 192 411C194.667 409 196.5 407 197.5 405C198.5 403 198.667 400.333 198 397C197.333 393.667 196.333 391.167 195 389.5C193.667 387.833 190 386.667 184 386C178 385.333 173.833 385.833 171.5 387.5ZM252.5 389.5C249.5 392.5 247.833 400 247.5 412C247.167 424 247.333 430.333 248 431C248.667 431.667 249.833 431.833 251.5 431.5C253.167 431.167 254.667 428.167 256 422.5C256.667 419.667 257.333 416.833 258 414C258.5 414.167 259 414.333 259.5 414.5C260.5 414.833 260.833 415.667 260.5 417C260.167 418.333 260.667 419.5 262 420.5C263.333 421.5 265.5 424.667 268.5 430C271.5 435.333 273.5 438.167 274.5 438.5C275.5 438.833 276.5 438.667 277.5 438C278.5 437.333 279 435.333 279 432C279 428.667 278.167 424.5 276.5 419.5C274.833 414.5 275.333 410.667 278 408C280.667 405.333 281.667 402.333 281 399C280.333 395.667 279 393 277 391C275 389 271.167 387.5 265.5 386.5C259.833 385.5 255.5 386.5 252.5 389.5ZM363.5 389C359.833 391 357.667 397.667 357 409C356.333 420.333 356.5 428.167 357.5 432.5C358 434.667 358.5 436.833 359 439C359.667 438.833 360.333 438.667 361 438.5C362.333 438.167 363.333 437.333 364 436C364.667 434.667 365.5 430.833 366.5 424.5C367.5 418.167 370.167 415 374.5 415C378.833 415 382.833 413.333 386.5 410C390.167 406.667 391.833 403 391.5 399C391.167 395 390.333 392.167 389 390.5C387.667 388.833 384 387.667 378 387C372 386.333 367.167 387 363.5 389ZM553 387.5C551 388.5 549 390.333 547 393C545 395.667 543.667 398.5 543 401.5C542.333 404.5 542.167 408.5 542.5 413.5C542.833 418.5 544 422.5 546 425.5C548 428.5 551.333 430.333 556 431C560.667 431.667 564 431 566 429C567 428 568 427 569 426C568 425.833 567 425.667 566 425.5C564 425.167 561.5 424 558.5 422C555.5 420 553.667 416.667 553 412C552.333 407.333 552.667 403.5 554 400.5C555.333 397.5 557.5 396 560.5 396C563.5 396 565.5 395.667 566.5 395C567.5 394.333 568 393.333 568 392C568 390.667 567.667 389.5 567 388.5C566.333 387.5 564.333 386.833 561 386.5C557.667 386.167 555 386.5 553 387.5ZM293.5 388.5C291.833 389.5 290.833 390.667 290.5 392C290.167 393.333 290 400 290 412C290 424 290.5 430.667 291.5 432C292.5 433.333 293.833 433.833 295.5 433.5C297.167 433.167 298.667 431.167 300 427.5C301.333 423.833 302 417 302 407C302 397 301.667 391.167 301 389.5C300.333 387.833 299.333 387 298 387C296.667 387 295.167 387.5 293.5 388.5ZM316.5 389C315.5 390.333 314.5 390.833 313.5 390.5C312.5 390.167 311.5 390.5 310.5 391.5C309.5 392.5 308 395.333 306 400C304 404.667 303.167 408 303.5 410C303.833 412 304.5 413.167 305.5 413.5C306.5 413.833 307.833 415.667 309.5 419C311.167 422.333 314 425.833 318 429.5C322 433.167 324.5 434.5 325.5 433.5C326.5 432.5 327 431 327 429C327 427 326.333 423.833 325 419.5C323.667 415.167 322 411.5 320 408.5C318 405.5 318 402 320 398C322 394 322.167 391.167 320.5 389.5C319.667 388.667 318.833 387.833 318 387C317.5 387.667 317 388.333 316.5 389ZM476.5 389C473.5 390.333 472 391.833 472 393.5C472 395.167 472.833 396.5 474.5 397.5C476.167 398.5 478.167 399 480.5 399C482.833 399 484.167 403.167 484.5 411.5C484.833 419.833 484.5 424.667 483.5 426C482.5 427.333 481 428.167 479 428.5C477 428.833 475.833 429.667 475.5 431C475.167 432.333 475.833 433.667 477.5 435C479.167 436.333 481.333 437 484 437C486.667 437 489.5 435.333 492.5 432C495.5 428.667 497.167 424.5 497.5 419.5C497.833 414.5 497.667 409.833 497 405.5C496.667 403.333 496.333 401.167 496 399C497.167 399 498.333 399 499.5 399C501.833 399 503.667 397.833 505 395.5C505.667 394.333 506.333 393.167 507 392C506.667 391.833 506.333 391.667 506 391.5C505.333 391.167 505.167 390.5 505.5 389.5C505.667 389 505.833 388.5 506 388C505.5 387.833 505 387.667 504.5 387.5C503.5 387.167 499.333 387 492 387C484.667 387 479.5 387.667 476.5 389ZM518 389.5C514.667 391.167 512.667 393.333 512 396C511.333 398.667 510.833 401.667 510.5 405C510.167 408.333 510.333 410.833 511 412.5C511.667 414.167 512 417.833 512 423.5C512 429.167 512.333 432.167 513 432.5C513.667 432.833 517 432.667 523 432C529 431.333 533 430.167 535 428.5C537 426.833 537.833 425 537.5 423C537.167 421 536.5 419.667 535.5 419C534.5 418.333 531.833 418.333 527.5 419C525.333 419.333 523.167 419.667 521 420C521 419.333 521 418.667 521 418C521 416.667 522.167 415.833 524.5 415.5C526.833 415.167 528.833 414.333 530.5 413C532.167 411.667 532.833 409.833 532.5 407.5C532.167 405.167 530.333 403.833 527 403.5C523.667 403.167 522 402.5 522 401.5C522 401 522 400.5 522 400C523.333 400 524.667 400 526 400C528.667 400 531.167 399 533.5 397C535.833 395 536.667 393 536 391C535.333 389 533 387.833 529 387.5C525 387.167 521.333 387.833 518 389.5ZM402 389C400.667 389.667 399.333 391.5 398 394.5C396.667 397.5 396.167 404.667 396.5 416C396.833 427.333 397.833 433 399.5 433C401.167 433 402.333 432.5 403 431.5C403.667 430.5 404.167 427.667 404.5 423C404.667 420.667 404.833 418.333 405 416C406.667 418.5 408.333 421 410 423.5C413.333 428.5 416 431.5 418 432.5C420 433.5 421.5 433.333 422.5 432C423.5 430.667 424 428.833 424 426.5C424 424.167 423 421.167 421 417.5C419 413.833 419.167 410.833 421.5 408.5C423.833 406.167 424.833 403.833 424.5 401.5C424.167 399.167 423 396.833 421 394.5C419 392.167 415.667 390.5 411 389.5C406.333 388.5 403.333 388.333 402 389ZM440.5 390C437.5 391.333 435.167 392.833 433.5 394.5C431.833 396.167 430.667 399.833 430 405.5C429.333 411.167 429.5 415.167 430.5 417.5C431.5 419.833 433.167 422 435.5 424C437.833 426 439.5 427 440.5 427C441.5 427 442.167 427.5 442.5 428.5C442.833 429.5 444.833 430.167 448.5 430.5C452.167 430.833 455.667 430.167 459 428.5C462.333 426.833 464.667 425.167 466 423.5C467.333 421.833 468.333 418.5 469 413.5C469.667 408.5 469.333 404.333 468 401C466.667 397.667 465.167 395.167 463.5 393.5C461.833 391.833 460 390.5 458 389.5C456 388.5 453.333 388 450 388C446.667 388 443.5 388.667 440.5 390ZM210.5 392.5C208.167 394.833 206 399.5 204 406.5C202 413.5 200.167 417.333 198.5 418C196.833 418.667 195.5 419.833 194.5 421.5C194 422.333 193.5 423.167 193 424C194 424.167 195 424.333 196 424.5C198 424.833 199.167 426.667 199.5 430C199.667 431.667 199.833 433.333 200 435C201 434.667 202 434.333 203 434C205 433.333 206.667 431.5 208 428.5C209.333 425.5 212 423.667 216 423C220 422.333 223 423.667 225 427C227 430.333 229 432.167 231 432.5C233 432.833 234.5 432.333 235.5 431C236.5 429.667 236.667 427.5 236 424.5C235.333 421.5 236 419.167 238 417.5C240 415.833 240.833 414 240.5 412C240.167 410 238.5 409 235.5 409C232.5 409 229.667 406.167 227 400.5C224.333 394.833 221.5 391.5 218.5 390.5C215.5 389.5 212.833 390.167 210.5 392.5ZM176 397C177.5 397.333 179 397.667 180.5 398C183.5 398.667 185 399.667 185 401C185 402.333 183.333 403.5 180 404.5C178.333 405 176.667 405.5 175 406C175.167 404.5 175.333 403 175.5 401.5C175.667 400 175.833 398.5 176 397ZM258 398C259.667 398.833 261.333 399.667 263 400.5C264.667 401.333 266.333 402.167 268 403C266.167 404.5 264.333 406 262.5 407.5C260.667 409 258.833 410.5 257 412C257.167 409.667 257.333 407.333 257.5 405C257.667 402.667 257.833 400.333 258 398ZM369 398C370.333 398.167 371.667 398.333 373 398.5C375.667 398.833 377.333 399.667 378 401C378.333 401.667 378.667 402.333 379 403C377.333 403.667 375.667 404.333 374 405C372.333 405.667 370.667 406.333 369 407C369 405.5 369 404 369 402.5C369 401 369 399.5 369 398ZM404 399C405.333 399.5 406.667 400 408 400.5C410.667 401.5 412 402.333 412 403C412 403.667 410.667 404.667 408 406C406.667 406.667 405.333 407.333 404 408C404 406.5 404 405 404 403.5C404 402 404 400.5 404 399ZM447 399C449 399 451.333 400 454 402C456.667 404 458.333 406.5 459 409.5C459.667 412.5 459.5 414.833 458.5 416.5C457.5 418.167 455.667 419.333 453 420C450.333 420.667 447.667 419.667 445 417C442.333 414.333 440.833 411.167 440.5 407.5C440.167 403.833 440.667 401.5 442 400.5C443.333 399.5 445 399 447 399Z" fill="#000000" fill-rule="nonzero" opacity="1" stroke="none"/>
</g>
</svg>
