<?xml version="1.0" encoding="UTF-8" standalone="no"?>
<!DOCTYPE svg PUBLIC "-//W3C//DTD SVG 1.1//EN" "http://www.w3.org/Graphics/SVG/1.1/DTD/svg11.dtd">
<!-- Created with Vectornator (http://vectornator.io/) -->
<svg height="100%" stroke-miterlimit="10" style="fill-rule:nonzero;clip-rule:evenodd;stroke-linecap:round;stroke-linejoin:round;" version="1.1" viewBox="0 0 500 500" width="100%" xml:space="preserve" xmlns="http://www.w3.org/2000/svg" xmlns:vectornator="http://vectornator.io" xmlns:xlink="http://www.w3.org/1999/xlink">
<defs/>
<g id="Layer-1" vectornator:layerName="Layer 1">
<path d="M250.5 13.5C225.5 13.8333 212.833 14.6667 212.5 16C212.167 17.3333 210.667 18.1667 208 18.5C205.333 18.8333 204 20.6667 204 24C204 27.3333 203.167 31.5 201.5 36.5C199.833 41.5 198.5 47.3333 197.5 54C196.5 60.6667 193.333 64.8333 188 66.5C182.667 68.1667 177.5 70.5 172.5 73.5C167.5 76.5 164.5 78 163.5 78C162.5 78 158 74.8333 150 68.5C142 62.1667 136 58 132 56C128 54 123.833 53.1667 119.5 53.5C115.167 53.8333 110.167 55.6667 104.5 59C98.8333 62.3333 91.5 68.6667 82.5 78C73.5 87.3333 67 94.8333 63 100.5C59 106.167 57.1667 112.667 57.5 120C57.8333 127.333 59.6667 133.833 63 139.5C66.3333 145.167 69.5 149.5 72.5 152.5C75.5 155.5 75.6667 160.833 73 168.5C70.3333 176.167 68.6667 182.333 68 187C67.3333 191.667 62.3333 194.833 53 196.5C43.6667 198.167 36.6667 200.333 32 203C27.3333 205.667 24.1667 208.667 22.5 212C20.8333 215.333 20 221.833 20 231.5C20 241.167 20.3333 246.833 21 248.5C21.6667 250.167 22.3333 258 23 272C23.6667 286 25.3333 294.167 28 296.5C30.6667 298.833 34.5 300.5 39.5 301.5C44.5 302.5 49.8333 303 55.5 303C61.1667 303 65.5 307.333 68.5 316C71.5 324.667 74.5 331.333 77.5 336C80.5 340.667 79 347.333 73 356C67 364.667 63.6667 370 63 372C62.3333 374 62.3333 378.333 63 385C63.6667 391.667 66.6667 398.167 72 404.5C77.3333 410.833 84.1667 418.167 92.5 426.5C100.833 434.833 106.333 439.833 109 441.5C111.667 443.167 114.833 444 118.5 444C122.167 444 126.167 443 130.5 441C134.833 439 140.5 435.167 147.5 429.5C154.5 423.833 160.5 421.833 165.5 423.5C170.5 425.167 173 426.333 173 427C173 427.667 174.667 428.833 178 430.5C181.333 432.167 185 433.5 189 434.5C193 435.5 195.333 436.333 196 437C196.667 437.667 197.167 440.833 197.5 446.5C197.833 452.167 199 458.833 201 466.5C203 474.167 204.667 479 206 481C207.333 483 209.833 484.833 213.5 486.5C217.167 488.167 229.5 489.333 250.5 490C271.5 490.667 283.667 490.5 287 489.5C290.333 488.5 293.167 487.167 295.5 485.5C297.833 483.833 300 481.333 302 478C304 474.667 305.667 470.833 307 466.5C308.333 462.167 309.167 456.167 309.5 448.5C309.833 440.833 315.5 434.833 326.5 430.5C337.5 426.167 343.833 424.167 345.5 424.5C347.167 424.833 350.5 427.5 355.5 432.5C360.5 437.5 365.667 441.333 371 444C376.333 446.667 380.667 448 384 448C387.333 448 390.167 447.333 392.5 446C394.833 444.667 400.833 439.333 410.5 430C420.167 420.667 426.333 415.167 429 413.5C431.667 411.833 435.5 408 440.5 402C445.5 396 448.167 390 448.5 384C448.833 378 447.333 372.167 444 366.5C440.667 360.833 436.667 355.333 432 350C427.333 344.667 426.833 336.667 430.5 326C434.167 315.333 436.5 309.5 437.5 308.5C438.5 307.5 439.167 305.667 439.5 303C439.833 300.333 445 298.333 455 297C465 295.667 471.333 294.167 474 292.5C476.667 290.833 478.5 288.167 479.5 284.5C480.5 280.833 480.833 267.167 480.5 243.5C480.167 219.833 478.833 206.5 476.5 203.5C474.167 200.5 472.333 199 471 199C469.667 199 468.167 198.167 466.5 196.5C464.833 194.833 459.667 193.333 451 192C442.333 190.667 437.167 187.167 435.5 181.5C433.833 175.833 431.5 170.333 428.5 165C425.5 159.667 424.333 156 425 154C425.667 152 428 149.167 432 145.5C436 141.833 439.167 137.833 441.5 133.5C443.833 129.167 445.167 123.833 445.5 117.5C445.833 111.167 445.167 106.333 443.5 103C441.833 99.6667 435.5 92.6667 424.5 82C413.5 71.3333 405.167 64.5 399.5 61.5C393.833 58.5 387.833 57.3333 381.5 58C375.167 58.6667 368 61.1667 360 65.5C352 69.8333 347 73 345 75C343 77 337.5 76.3333 328.5 73C319.5 69.6667 314.167 67 312.5 65C310.833 63 309.667 58.6667 309 52C308.333 45.3333 307.5 40.1667 306.5 36.5C305.5 32.8333 304.167 30 302.5 28C300.833 26 300.167 24.3333 300.5 23C300.833 21.6667 300.5 20.5 299.5 19.5C298.5 18.5 298 17.1667 298 15.5C298 14.6667 298 13.8333 298 13C296.333 13 294.667 13 293 13C289.667 13 275.5 13.1667 250.5 13.5ZM254 35C274.667 35.6667 285.5 37 286.5 39C287.5 41 288.333 45.5 289 52.5C289.667 59.5 290.833 64.8333 292.5 68.5C294.167 72.1667 296.667 75.5 300 78.5C303.333 81.5 309.833 85 319.5 89C329.167 93 334.833 96 336.5 98C338.167 100 341.333 101 346 101C350.667 101 353.333 100.833 354 100.5C354.667 100.167 355 99.1667 355 97.5C355 95.8333 355.833 94.6667 357.5 94C359.167 93.3333 360 92.6667 360 92C360 91.3333 362.5 90 367.5 88C372.5 86 375.667 84.3333 377 83C378.333 81.6667 380.167 80.5 382.5 79.5C384.833 78.5 387.5 78.1667 390.5 78.5C393.5 78.8333 400.333 84.3333 411 95C421.667 105.667 427 111.833 427 113.5C427 115.167 426.333 117.167 425 119.5C423.667 121.833 420.333 125.667 415 131C409.667 136.333 405.667 141.5 403 146.5C400.333 151.5 401.333 157.5 406 164.5C410.667 171.5 414 177.667 416 183C418 188.333 419 192.167 419 194.5C419 196.833 419.667 199.167 421 201.5C422.333 203.833 423.5 205 424.5 205C425.5 205 426.833 205.833 428.5 207.5C430.167 209.167 435.667 210.5 445 211.5C454.333 212.5 459.5 213.667 460.5 215C461.5 216.333 462 226.333 462 245C462 263.667 460 273.667 456 275C452 276.333 446.333 277.333 439 278C431.667 278.667 427.667 279.333 427 280C426.333 280.667 426.167 281.667 426.5 283C426.667 283.667 426.833 284.333 427 285C426.333 285.167 425.667 285.333 425 285.5C423.667 285.833 422 289.5 420 296.5C418 303.5 414.5 312.667 409.5 324C404.5 335.333 402.5 342.333 403.5 345C404.5 347.667 405.667 349.333 407 350C408.333 350.667 412 354.833 418 362.5C424 370.167 427.333 374.667 428 376C428.667 377.333 428.833 379 428.5 381C428.167 383 420 391.167 404 405.5C388 419.833 379.333 427 378 427C376.667 427 374 425.333 370 422C366 418.667 362.333 415.167 359 411.5C355.667 407.833 354 405.5 354 404.5C354 403.5 352.667 402.667 350 402C347.333 401.333 344.833 401.167 342.5 401.5C340.167 401.833 339 402.833 339 404.5C339 406.167 336.833 407.5 332.5 408.5C328.167 409.5 323.167 411.333 317.5 414C311.833 416.667 308.667 417.333 308 416C307.333 414.667 305.833 413.833 303.5 413.5C301.167 413.167 299.5 414 298.5 416C297.5 418 296.167 418.833 294.5 418.5C293.667 418.333 292.833 418.167 292 418C292 419.167 292 420.333 292 421.5C292 423.833 291.333 425.333 290 426C288.667 426.667 288.333 431.167 289 439.5C289.667 447.833 289.167 455 287.5 461C285.833 467 278.833 470 266.5 470C254.167 470 244 469.5 236 468.5C228 467.5 223.167 465.5 221.5 462.5C219.833 459.5 218.333 452.667 217 442C215.667 431.333 214.5 425.5 213.5 424.5C212.5 423.5 212 422.333 212 421C212 419.667 208.5 417.833 201.5 415.5C194.5 413.167 190 411.167 188 409.5C186 407.833 182.5 406.167 177.5 404.5C172.5 402.833 169.5 401.5 168.5 400.5C167.5 399.5 165.5 399 162.5 399C159.5 399 157.833 399.5 157.5 400.5C157.167 401.5 156 402.167 154 402.5C152 402.833 147 406.333 139 413C131 419.667 125.833 422.833 123.5 422.5C121.167 422.167 113.5 415.167 100.5 401.5C87.5 387.833 82.6667 377.667 86 371C89.3333 364.333 91.3333 361 92 361C92.6667 361 95 358.333 99 353C103 347.667 105.167 343.833 105.5 341.5C105.833 339.167 105.5 337.833 104.5 337.5C103.5 337.167 103.167 336.167 103.5 334.5C103.833 332.833 102.833 331.333 100.5 330C98.1667 328.667 95.8333 326 93.5 322C91.1667 318 88.1667 310.667 84.5 300C80.8333 289.333 78.6667 283.667 78 283C77.3333 282.333 72.3333 282 63 282C53.6667 282 47.6667 281.333 45 280C42.3333 278.667 40.8333 268.167 40.5 248.5C40.1667 228.833 45.6667 218 57 216C68.3333 214 75.3333 212.167 78 210.5C80.6667 208.833 82.6667 206.667 84 204C85.3333 201.333 86.8333 195.667 88.5 187C90.1667 178.333 92.6667 170.833 96 164.5C99.3333 158.167 100.833 154 100.5 152C100.167 150 99.6667 149 99 149C98.6667 149 98.3333 149 98 149C98.1667 148.333 98.3333 147.667 98.5 147C98.8333 145.667 97.6667 144.333 95 143C92.3333 141.667 88.6667 137.833 84 131.5C79.3333 125.167 76.8333 120.667 76.5 118C76.1667 115.333 76.3333 113.5 77 112.5C77.6667 111.5 83.3333 105.167 94 93.5C104.667 81.8333 110.833 75.6667 112.5 75C114.167 74.3333 116.333 74.3333 119 75C121.667 75.6667 124.167 77.1667 126.5 79.5C128.833 81.8333 131.167 83.5 133.5 84.5C135.833 85.5 137 86.3333 137 87C137 87.6667 139 89.3333 143 92C147 94.6667 148.833 96.5 148.5 97.5C148.167 98.5 148.667 99.5 150 100.5C151.333 101.5 153.333 101.833 156 101.5C158.667 101.167 162.667 99.3333 168 96C173.333 92.6667 178.5 90 183.5 88C188.5 86 193.5 85 198.5 85C203.5 85 207.333 83.5 210 80.5C212.667 77.5 214.333 72.8333 215 66.5C215.667 60.1667 217.167 53.1667 219.5 45.5C221.833 37.8333 233.333 34.3333 254 35ZM227.5 107.5C217.833 109.167 207.333 112.333 196 117C184.667 121.667 174.833 127 166.5 133C158.167 139 151.167 145 145.5 151C139.833 157 134.167 164.333 128.5 173C122.833 181.667 118.333 190.5 115 199.5C111.667 208.5 109.333 217.833 108 227.5C106.667 237.167 106.167 246.667 106.5 256C106.833 265.333 108.333 275.167 111 285.5C113.667 295.833 116.5 304.167 119.5 310.5C122.5 316.833 127.167 324.333 133.5 333C139.833 341.667 145.667 348.5 151 353.5C156.333 358.5 163.667 364 173 370C182.333 376 190.833 380.167 198.5 382.5C206.167 384.833 210.167 386.333 210.5 387C210.833 387.667 215 388.833 223 390.5C231 392.167 241 393 253 393C265 393 274.5 392.333 281.5 391C288.5 389.667 296.833 387.167 306.5 383.5C316.167 379.833 324.667 375.667 332 371C339.333 366.333 346.667 360.667 354 354C361.333 347.333 368.167 339.5 374.5 330.5C380.833 321.5 385.667 313 389 305C392.333 297 395 288.333 397 279C399 269.667 400 259.833 400 249.5C400 239.167 399.167 229.833 397.5 221.5C395.833 213.167 393 204.167 389 194.5C385 184.833 379.167 174.833 371.5 164.5C363.833 154.167 357.667 147 353 143C348.333 139 342.833 134.833 336.5 130.5C330.167 126.167 321.333 121.667 310 117C298.667 112.333 288.167 109.167 278.5 107.5C268.833 105.833 260.333 105 253 105C245.667 105 237.167 105.833 227.5 107.5ZM253 126C264.333 126 273.667 126.833 281 128.5C288.333 130.167 296 132.667 304 136C312 139.333 318.5 142.667 323.5 146C328.5 149.333 333.667 153.333 339 158C344.333 162.667 349.5 168.333 354.5 175C359.5 181.667 363.667 188.333 367 195C370.333 201.667 373.167 209.333 375.5 218C377.833 226.667 379.167 234.333 379.5 241C379.833 247.667 379.5 255.667 378.5 265C377.5 274.333 376.667 279.167 376 279.5C375.333 279.833 373.833 283.833 371.5 291.5C369.167 299.167 366.167 306 362.5 312C358.833 318 353.667 324.667 347 332C340.333 339.333 333.667 345.333 327 350C320.333 354.667 313.167 358.667 305.5 362C297.833 365.333 290.833 367.833 284.5 369.5C278.167 371.167 267.833 372 253.5 372C239.167 372 226.5 370.333 215.5 367C204.5 363.667 196 360.333 190 357C184 353.667 181 351.667 181 351C181 350.333 177.333 347.167 170 341.5C162.667 335.833 155.833 328.667 149.5 320C143.167 311.333 138.5 303.333 135.5 296C132.5 288.667 130.167 280.833 128.5 272.5C126.833 264.167 126 256.5 126 249.5C126 242.5 126.833 234.833 128.5 226.5C130.167 218.167 132.667 210 136 202C139.333 194 142.667 187.5 146 182.5C149.333 177.5 154 171.833 160 165.5C166 159.167 172.667 153.5 180 148.5C187.333 143.5 194.833 139.333 202.5 136C210.167 132.667 217.667 130.167 225 128.5C232.333 126.833 241.667 126 253 126ZM268 148C267.333 148.667 267 150.333 267 153C267 155.667 267.333 157.833 268 159.5C268.667 161.167 269.5 162 270.5 162C271.5 162 272.5 161.667 273.5 161C274.5 160.333 275.167 158.5 275.5 155.5C275.833 152.5 275.667 150.333 275 149C274.333 147.667 273.167 147 271.5 147C269.833 147 268.667 147.333 268 148ZM234.5 151.5C236.167 153.833 239.833 157.167 245.5 161.5C251.167 165.833 254.667 167.833 256 167.5C257.333 167.167 258 166.5 258 165.5C258 164.5 255 161.5 249 156.5C243 151.5 238.667 148.833 236 148.5C234.667 148.333 233.333 148.167 232 148C232.833 149.167 233.667 150.333 234.5 151.5ZM299.5 155.5C297.833 157.167 296.667 157.833 296 157.5C295.333 157.167 294 158.833 292 162.5C290 166.167 287.667 168.833 285 170.5C282.333 172.167 280.333 174.333 279 177C277.667 179.667 276 181.833 274 183.5C272 185.167 270.833 186.667 270.5 188C270.167 189.333 264.5 196.667 253.5 210C242.5 223.333 236.167 231.667 234.5 235C232.833 238.333 231.667 240 231 240C230.333 240 228.167 243 224.5 249C220.833 255 217.667 259.333 215 262C212.333 264.667 210.167 267.667 208.5 271C206.833 274.333 203.167 279.667 197.5 287C191.833 294.333 188.667 299 188 301C187.333 303 186.167 304.5 184.5 305.5C182.833 306.5 180.333 309.167 177 313.5C173.667 317.833 172 322.167 172 326.5C172 330.833 173 333.833 175 335.5C177 337.167 179 338.167 181 338.5C183 338.833 184 339.833 184 341.5C184 342.333 184 343.167 184 344C186 342.333 188 340.667 190 339C194 335.667 200 329.167 208 319.5C216 309.833 220.167 304.333 220.5 303C220.833 301.667 222.167 300 224.5 298C226.833 296 236.667 283.333 254 260C271.333 236.667 280.167 224.333 280.5 223C280.833 221.667 281.333 221 282 221C282.667 221 284.833 218.5 288.5 213.5C292.167 208.5 296 202.667 300 196C304 189.333 306.333 186 307 186C307.667 186 309 184.333 311 181C313 177.667 314.5 173.833 315.5 169.5C316.5 165.167 316.5 162 315.5 160C314.5 158 312 156.333 308 155C304 153.667 301.167 153.833 299.5 155.5ZM300 166C300.667 166 301.333 166 302 166C303.333 166 304.5 166.667 305.5 168C306.5 169.333 304.833 173 300.5 179C296.167 185 293.667 188 293 188C292.333 188 291 189.833 289 193.5C287 197.167 285.667 199 285 199C284.333 199 283.333 197.667 282 195C280.667 192.333 281.5 189.333 284.5 186C287.5 182.667 289.833 179.333 291.5 176C293.167 172.667 295 170.5 297 169.5C299 168.5 300 167.667 300 167C300 166.667 300 166.333 300 166ZM210.5 170.5C209 171 207.5 171.5 206 172C206.167 172.5 206.333 173 206.5 173.5C206.833 174.5 208.167 175.167 210.5 175.5C212.833 175.833 214.167 176.333 214.5 177C214.833 177.667 220.333 178.5 231 179.5C241.667 180.5 247.333 181.333 248 182C248.667 182.667 250.333 182.667 253 182C255.667 181.333 257 180.5 257 179.5C257 178.5 256.167 177.167 254.5 175.5C252.833 173.833 250.833 172.833 248.5 172.5C246.167 172.167 244.833 171.667 244.5 171C244.167 170.333 239.167 169.833 229.5 169.5C219.833 169.167 213.5 169.5 210.5 170.5ZM327 176.5C325 178.167 324.167 180 324.5 182C324.833 184 327.667 185 333 185C338.333 185 341.167 184 341.5 182C341.833 180 341 178.167 339 176.5C337 174.833 335 174 333 174C331 174 329 174.833 327 176.5ZM235.5 196C235.167 196.667 234 197 232 197C230 197 226.333 198 221 200C215.667 202 211.167 204 207.5 206C203.833 208 201.833 209.5 201.5 210.5C201.333 211 201.167 211.5 201 212C207.667 210 214.333 208 221 206C234.333 202 241.333 199.5 242 198.5C242.333 198 242.667 197.5 243 197C241.833 196.667 240.667 196.333 239.5 196C237.167 195.333 235.833 195.333 235.5 196ZM329.5 201C327.833 202.333 327.167 204.333 327.5 207C327.833 209.667 329.667 211.667 333 213C336.333 214.333 341 215.167 347 215.5C350 215.667 353 215.833 356 216C355.833 215.167 355.667 214.333 355.5 213.5C355.167 211.833 353.833 210 351.5 208C349.167 206 345.333 204 340 202C334.667 200 331.167 199.667 329.5 201ZM272 202C272.833 203.5 273.667 205 274.5 206.5C276.167 209.5 273 216 265 226C257 236 252.833 241.667 252.5 243C252.167 244.333 250.5 246.667 247.5 250C244.5 253.333 243 255.5 243 256.5C243 257.5 240.5 260.833 235.5 266.5C230.5 272.167 228 275.5 228 276.5C228 277.5 222.667 285 212 299C201.333 313 195.5 321.167 194.5 323.5C193.5 325.833 192.167 327.5 190.5 328.5C188.833 329.5 187.5 329.5 186.5 328.5C185.5 327.5 185 326.167 185 324.5C185 322.833 186.5 320 189.5 316C192.5 312 194.667 308.333 196 305C197.333 301.667 210.333 283.667 235 251C247.333 234.667 259.667 218.333 272 202ZM315 218.5C313.667 219.5 313.167 221.333 313.5 224C313.833 226.667 316.167 230.167 320.5 234.5C324.833 238.833 327.167 241.667 327.5 243C327.833 244.333 328.667 245.167 330 245.5C331.333 245.833 332.333 246.667 333 248C333.667 249.333 335.333 250.333 338 251C339.333 251.333 340.667 251.667 342 252C338.833 246.5 335.667 241 332.5 235.5C326.167 224.5 322 218.667 320 218C318 217.333 316.333 217.5 315 218.5ZM296.5 225.5C294.833 227.167 294 229.5 294 232.5C294 235.5 294.667 241.667 296 251C297.333 260.333 298.5 265.5 299.5 266.5C300 267 300.5 267.5 301 268C301.667 261.167 302.333 254.333 303 247.5C304.333 233.833 304.667 226.333 304 225C303.333 223.667 302.333 223 301 223C299.667 223 298.167 223.833 296.5 225.5Z" fill="#000000" fill-rule="nonzero" opacity="1" stroke="none"/>
</g>
</svg>
