<?xml version="1.0" encoding="UTF-8" standalone="no"?>
<!DOCTYPE svg PUBLIC "-//W3C//DTD SVG 1.1//EN" "http://www.w3.org/Graphics/SVG/1.1/DTD/svg11.dtd">
<!-- Created with Vectornator (http://vectornator.io/) -->
<svg height="100%" stroke-miterlimit="10" style="fill-rule:nonzero;clip-rule:evenodd;stroke-linecap:round;stroke-linejoin:round;" version="1.1" viewBox="0 0 500 500" width="100%" xml:space="preserve" xmlns="http://www.w3.org/2000/svg" xmlns:vectornator="http://vectornator.io" xmlns:xlink="http://www.w3.org/1999/xlink">
<defs/>
<g id="Layer-1" vectornator:layerName="Layer 1">
<path d="M116.5 11C114.167 12.3333 112.833 14 112.5 16C112.167 18 111.167 19.6667 109.5 21C107.833 22.3333 105.333 22.6667 102 22C98.6667 21.3333 96.5 21.5 95.5 22.5C94.5 23.5 93.1667 32.3333 91.5 49C89.8333 65.6667 85.1667 74.3333 77.5 75C69.8333 75.6667 65 76.6667 63 78C61 79.3333 60.3333 81.5 61 84.5C61.6667 87.5 65.8333 90.6667 73.5 94C81.1667 97.3333 84.3333 103.333 83 112C81.6667 120.667 81 129.167 81 137.5C81 145.833 81.5 151 82.5 153C83.5 155 84.6667 156 86 156C87.3333 156 89.3333 154.333 92 151C94.6667 147.667 98.6667 139.833 104 127.5C109.333 115.167 115.667 110 123 112C130.333 114 138.167 114.667 146.5 114C154.833 113.333 162.667 110.333 170 105C177.333 99.6667 183 93.5 187 86.5C191 79.5 191.667 71.6667 189 63C186.333 54.3333 183.167 47.6667 179.5 43C175.833 38.3333 169 33 159 27C149 21 143 17 141 15C139 13 135 11.5 129 10.5C123 9.5 118.833 9.66667 116.5 11ZM127 66C129.833 67.3333 132.667 68.6667 135.5 70C138.333 71.3333 141.167 72.6667 144 74C140.667 74.1667 137.333 74.3333 134 74.5C130.667 74.6667 127.333 74.8333 124 75C124.5 73.5 125 72 125.5 70.5C126 69 126.5 67.5 127 66ZM309 70.5C307.667 71.5 307 72.6667 307 74C307 75.3333 306.333 76.3333 305 77C303.667 77.6667 301.833 77.8333 299.5 77.5C298.333 77.3333 297.167 77.1667 296 77C296 78.6667 296 80.3333 296 82C296 85.3333 296.5 87.3333 297.5 88C298.5 88.6667 298.667 90.3333 298 93C297.333 95.6667 297.833 97.5 299.5 98.5C301.167 99.5 303.833 99.8333 307.5 99.5C311.167 99.1667 313.167 98.3333 313.5 97C313.833 95.6667 314.833 95 316.5 95C317.333 95 318.167 95 319 95C319 94.5 319 94 319 93.5C319 92.5 319.667 91.5 321 90.5C322.333 89.5 322.667 88.5 322 87.5C321.667 87 321.333 86.5 321 86C321.667 85.8333 322.333 85.6667 323 85.5C323.667 85.3333 324.333 85.1667 325 85C324.667 84 324.333 83 324 82C323.333 80 322.333 78.8333 321 78.5C319.667 78.1667 319.167 76.6667 319.5 74C319.667 72.6667 319.833 71.3333 320 70C318.5 69.8333 317 69.6667 315.5 69.5C312.5 69.1667 310.333 69.5 309 70.5ZM406.5 74C403.5 75.3333 402.667 77.6667 404 81C405.333 84.3333 409.667 89.1667 417 95.5C424.333 101.833 430.5 106.167 435.5 108.5C440.5 110.833 438.5 123.5 429.5 146.5C420.5 169.5 416 184.167 416 190.5C416 196.833 416.833 200.333 418.5 201C420.167 201.667 422.5 201.5 425.5 200.5C428.5 199.5 431.833 197.167 435.5 193.5C439.167 189.833 442.167 186.167 444.5 182.5C446.833 178.833 449.833 173.167 453.5 165.5C457.167 157.833 460.833 148.833 464.5 138.5C466.333 133.333 468.167 128.167 470 123C472.333 123.833 474.667 124.667 477 125.5C481.667 127.167 485.667 128 489 128C492.333 128 494.833 127.167 496.5 125.5C498.167 123.833 499.167 122 499.5 120C499.833 118 499.667 116.833 499 116.5C498.333 116.167 498 115.167 498 113.5C498 111.833 496.667 109.667 494 107C491.333 104.333 484 98.8333 472 90.5C460 82.1667 449.667 77 441 75C432.333 73 425.167 72 419.5 72C413.833 72 409.5 72.6667 406.5 74ZM207.5 103.5C198.5 108.5 189.333 115.833 180 125.5C170.667 135.167 165.167 141.333 163.5 144C161.833 146.667 161.333 152.167 162 160.5C162.667 168.833 163.667 173.333 165 174C166.333 174.667 169 174.833 173 174.5C177 174.167 180.833 172.667 184.5 170C188.167 167.333 191.5 164.167 194.5 160.5C197.5 156.833 202 155.167 208 155.5C214 155.833 218.167 156.333 220.5 157C222.833 157.667 224.167 158.5 224.5 159.5C224.833 160.5 225.167 165.167 225.5 173.5C225.833 181.833 227 186.5 229 187.5C231 188.5 232.333 188.667 233 188C233.667 187.333 234.833 187.167 236.5 187.5C238.167 187.833 239.167 187.333 239.5 186C239.833 184.667 240.667 184 242 184C243.333 184 244.333 182.667 245 180C245.667 177.333 246.333 176 247 176C247.333 176 247.667 176 248 176C248 171.167 248 166.333 248 161.5C248 151.833 247.667 146.667 247 146C246.333 145.333 245.667 138.5 245 125.5C244.333 112.5 243.5 105.5 242.5 104.5C241.5 103.5 241 102.167 241 100.5C241 98.8333 240 97.8333 238 97.5C236 97.1667 234.333 97.8333 233 99.5C232.333 100.333 231.667 101.167 231 102C231.167 101.333 231.333 100.667 231.5 100C231.667 99.3333 231.833 98.6667 232 98C230.167 97.6667 228.333 97.3333 226.5 97C222.833 96.3333 216.5 98.5 207.5 103.5ZM344 100C342 100.667 340.5 102.333 339.5 105C338.5 107.667 337.5 109 336.5 109C335.5 109 334.833 109.5 334.5 110.5C334.167 111.5 333 112.333 331 113C330 113.333 329 113.667 328 114C327.833 113.333 327.667 112.667 327.5 112C327.333 111.333 327.167 110.667 327 110C326.5 110.167 326 110.333 325.5 110.5C324.5 110.833 323.833 113.333 323.5 118C323.167 122.667 320.167 131.667 314.5 145C308.833 158.333 306 167.833 306 173.5C306 179.167 306.167 183.5 306.5 186.5C306.833 189.5 308 191.667 310 193C312 194.333 314.5 194.833 317.5 194.5C320.5 194.167 323.833 192.167 327.5 188.5C329.333 186.667 331.167 184.833 333 183C333.667 186.833 334.333 190.667 335 194.5C336.333 202.167 337.833 207 339.5 209C341.167 211 343.667 212.5 347 213.5C350.333 214.5 352.5 214.667 353.5 214C354.5 213.333 356.167 213.167 358.5 213.5C360.833 213.833 362.5 213.167 363.5 211.5C364.5 209.833 365.833 209 367.5 209C369.167 209 372.167 205.333 376.5 198C380.833 190.667 385.667 177.667 391 159C396.333 140.333 399.333 127.333 400 120C400.667 112.667 400.667 108.167 400 106.5C399.333 104.833 398.333 104 397 104C395.667 104 393.667 104.833 391 106.5C388.333 108.167 384.5 112.167 379.5 118.5C374.5 124.833 371 130.667 369 136C367 141.333 365.5 144.333 364.5 145C364 145.333 363.5 145.667 363 146C362.833 141.167 362.667 136.333 362.5 131.5C362.167 121.833 361 116 359 114C357 112 356 109.333 356 106C356 104.333 356 102.667 356 101C354.833 101.167 353.667 101.333 352.5 101.5C350.167 101.833 348.667 101.5 348 100.5C347.333 99.5 346 99.3333 344 100ZM288.5 117.5C286.833 119.833 285 120.833 283 120.5C281 120.167 279 121 277 123C275 125 271.667 132 267 144C262.333 156 260 164.167 260 168.5C260 172.833 260.5 175.5 261.5 176.5C262.5 177.5 262.667 179.5 262 182.5C261.333 185.5 262 187.667 264 189C266 190.333 268.333 190.667 271 190C273.667 189.333 275.667 189.333 277 190C278.333 190.667 279.5 190.167 280.5 188.5C281.5 186.833 282.833 186 284.5 186C286.167 186 288.5 183.667 291.5 179C294.5 174.333 296.5 170.5 297.5 167.5C298.5 164.5 300.167 159 302.5 151C304.833 143 306 137.333 306 134C306 130.667 305.167 128 303.5 126C301.833 124 301.167 122 301.5 120C301.833 118 301.5 116.5 300.5 115.5C299.5 114.5 297.667 114 295 114C292.333 114 290.167 115.167 288.5 117.5ZM194 116C193.5 116.667 193 117.333 192.5 118C192 118.667 191.5 119.333 191 120C191.5 119.333 192 118.667 192.5 118C193 117.333 193.5 116.667 194 116ZM187 123C187 123.5 187 124 187 124.5C187 125.5 183.833 129 177.5 135C174.333 138 171.167 141 168 144C171.167 140.5 174.333 137 177.5 133.5C180.667 130 183.833 126.5 187 123ZM167 145C166.833 145.333 166.667 145.667 166.5 146C166.333 146.333 166.167 146.667 166 147C166.167 146.667 166.333 146.333 166.5 146C166.667 145.667 166.833 145.333 167 145ZM74.5 193C69.5 193.667 66.8333 194.333 66.5 195C66.1667 195.667 67.1667 196.833 69.5 198.5C71.8333 200.167 83 204.667 103 212C113 215.667 123 219.333 133 223C129.833 230.5 126.667 238 123.5 245.5C117.167 260.5 113.667 269.5 113 272.5C112.333 275.5 112.333 280 113 286C113.333 289 113.667 292 114 295C115.333 294.833 116.667 294.667 118 294.5C120.667 294.167 123.167 292.833 125.5 290.5C127.833 288.167 130.5 284.667 133.5 280C136.5 275.333 141.167 266 147.5 252C153.833 238 164.333 233.667 179 239C193.667 244.333 202.833 246.833 206.5 246.5C210.167 246.167 213.167 244.667 215.5 242C217.833 239.333 218.167 235.667 216.5 231C214.833 226.333 208 221.5 196 216.5C184 211.5 170.667 207 156 203C141.333 199 125.333 196.167 108 194.5C90.6667 192.833 79.5 192.333 74.5 193ZM249.5 212.5C247.833 213.5 246.667 214.833 246 216.5C245.333 218.167 244.333 219.167 243 219.5C242.333 219.667 241.667 219.833 241 220C241 219.667 241 219.333 241 219C241 218.667 241 218.333 241 218C240.5 218 240 218 239.5 218C238.5 218 237.667 218.5 237 219.5C236.333 220.5 230.167 232.5 218.5 255.5C206.833 278.5 200.667 293.667 200 301C199.333 308.333 199.5 312.5 200.5 313.5C201.5 314.5 203.333 314.833 206 314.5C208.667 314.167 211.5 312.667 214.5 310C217.5 307.333 222 300.5 228 289.5C234 278.5 239.167 274 243.5 276C247.833 278 252 279.333 256 280C258 280.333 260 280.667 262 281C258.833 285.833 255.667 290.667 252.5 295.5C246.167 305.167 243.167 312.333 243.5 317C243.833 321.667 244.5 324.333 245.5 325C246.5 325.667 248.333 325.833 251 325.5C253.667 325.167 256.167 324.333 258.5 323C260.833 321.667 263.167 319.833 265.5 317.5C267.833 315.167 271.333 310.167 276 302.5C280.667 294.833 284.667 290.167 288 288.5C291.333 286.833 293.5 285.167 294.5 283.5C295.5 281.833 295.667 279.833 295 277.5C294.333 275.167 295.833 271.5 299.5 266.5C303.167 261.5 306.333 256.167 309 250.5C311.667 244.833 312.5 240.5 311.5 237.5C310.5 234.5 308.833 233 306.5 233C304.167 233 300.833 234.333 296.5 237C292.167 239.667 288 244 284 250C280 256 275.833 258.167 271.5 256.5C267.167 254.833 262.167 253.833 256.5 253.5C253.667 253.333 250.833 253.167 248 253C250.333 248.667 252.667 244.333 255 240C259.667 231.333 262 226.167 262 224.5C262 222.833 261.333 221.5 260 220.5C258.667 219.5 258.167 218 258.5 216C258.833 214 257.833 212.667 255.5 212C253.167 211.333 251.167 211.5 249.5 212.5ZM375 251C367.667 252.333 362.667 253.667 360 255C357.333 256.333 354.833 256.5 352.5 255.5C350.167 254.5 347.667 255.333 345 258C342.333 260.667 340.5 261.667 339.5 261C338.5 260.333 330.5 268.667 315.5 286C300.5 303.333 293 313.667 293 317C293 320.333 293.5 322.5 294.5 323.5C295.5 324.5 295.667 326.333 295 329C294.333 331.667 296.333 334 301 336C305.667 338 310.5 339.167 315.5 339.5C320.5 339.833 327 339.833 335 339.5C343 339.167 348.833 338.167 352.5 336.5C356.167 334.833 358.5 332.667 359.5 330C360.5 327.333 360.167 324.333 358.5 321C356.833 317.667 355 315.167 353 313.5C351 311.833 347.167 310.667 341.5 310C335.833 309.333 332.833 308.5 332.5 307.5C332.333 307 332.167 306.5 332 306C332.667 305.833 333.333 305.667 334 305.5C335.333 305.167 339.667 306 347 308C354.333 310 359.833 310.833 363.5 310.5C367.167 310.167 370.167 309.333 372.5 308C374.833 306.667 376.5 304.833 377.5 302.5C378.5 300.167 378 297 376 293C374 289 368.5 286.667 359.5 286C355 285.667 350.5 285.333 346 285C347.5 282.5 349 280 350.5 277.5C353.5 272.5 358.833 271 366.5 273C374.167 275 380.167 276 384.5 276C388.833 276 392.667 275.167 396 273.5C399.333 271.833 402 269.667 404 267C406 264.333 406.5 261.333 405.5 258C404.5 254.667 402.833 252.333 400.5 251C398.167 249.667 395.167 249 391.5 249C387.833 249 382.333 249.667 375 251ZM59.5 331.5C57.8333 332.5 56.8333 333.833 56.5 335.5C56.1667 337.167 54.3333 338 51 338C47.6667 338 45.8333 338.333 45.5 339C45.1667 339.667 44.1667 347.167 42.5 361.5C40.8333 375.833 36.3333 383.5 29 384.5C21.6667 385.5 15.1667 387 9.5 389C3.83333 391 1 392.5 1 393.5C1 394.5 2.16667 395.833 4.5 397.5C6.83333 399.167 12.8333 401.167 22.5 403.5C32.1667 405.833 36.8333 410.833 36.5 418.5C36.1667 426.167 36.5 431 37.5 433C38.5 435 40.5 435.667 43.5 435C46.5 434.333 49.5 429.333 52.5 420C55.5 410.667 59.6667 405.667 65 405C70.3333 404.333 75.3333 403.167 80 401.5C84.6667 399.833 88.5 398 91.5 396C94.5 394 97.1667 391.5 99.5 388.5C101.833 385.5 104.333 381 107 375C109.667 369 111 364.833 111 362.5C111 360.167 110.333 358.333 109 357C107.667 355.667 106.833 353.667 106.5 351C106.167 348.333 105.333 346.333 104 345C102.667 343.667 97.1667 341 87.5 337C77.8333 333 71.1667 330.833 67.5 330.5C63.8333 330.167 61.1667 330.5 59.5 331.5ZM137.5 367.5C135.833 369.833 134.333 370.667 133 370C131.667 369.333 130.5 369.5 129.5 370.5C128.5 371.5 121.667 379.667 109 395C96.3333 410.333 89.8333 421.333 89.5 428C89.1667 434.667 89.3333 438.333 90 439C90.6667 439.667 93 439.833 97 439.5C101 439.167 104.667 437.5 108 434.5C111.333 431.5 113.833 428.667 115.5 426C117.167 423.333 119.833 422 123.5 422C127.167 422 130.667 422.333 134 423C137.333 423.667 139.5 428 140.5 436C141.5 444 142.667 448.333 144 449C145.333 449.667 147 449.333 149 448C151 446.667 153.667 441.5 157 432.5C160.333 423.5 162.167 413.167 162.5 401.5C162.833 389.833 161.833 381.833 159.5 377.5C157.167 373.167 154.667 370.833 152 370.5C149.333 370.167 148 369 148 367C148 366 148 365 148 364C146.667 364 145.333 364 144 364C141.333 364 139.167 365.167 137.5 367.5ZM66 366C68.1667 366.667 70.3333 367.333 72.5 368C74.6667 368.667 76.8333 369.333 79 370C78.5 371 78 372 77.5 373C76.5 375 73.8333 376.5 69.5 377.5C67.3333 378 65.1667 378.5 63 379C63.5 376.833 64 374.667 64.5 372.5C65 370.333 65.5 368.167 66 366ZM280.5 372.5C278.833 374.833 277 375.833 275 375.5C273 375.167 270.167 379.333 266.5 388C262.833 396.667 258.333 407.667 253 421C247.667 434.333 245.167 443.833 245.5 449.5C245.833 455.167 248 458.333 252 459C256 459.667 258.167 459.5 258.5 458.5C258.833 457.5 259.833 456.667 261.5 456C263.167 455.333 264.833 453.667 266.5 451C268.167 448.333 270.667 441.833 274 431.5C277.333 421.167 279.333 416 280 416C280.333 416 280.667 416 281 416C280.667 416.667 280.333 417.333 280 418C279.333 419.333 279.667 421 281 423C282.333 425 282.5 426.833 281.5 428.5C280.5 430.167 280.167 431.5 280.5 432.5C280.833 433.5 283.167 435 287.5 437C291.833 439 296.833 445.5 302.5 456.5C308.167 467.5 312.333 473.5 315 474.5C317.667 475.5 319.833 474.167 321.5 470.5C323.167 466.833 324 460.5 324 451.5C324 442.5 322.833 434.167 320.5 426.5C318.167 418.833 320.167 411.667 326.5 405C332.833 398.333 336.5 393.333 337.5 390C338.5 386.667 338.5 384.833 337.5 384.5C336.5 384.167 336 383.167 336 381.5C336 380.667 336 379.833 336 379C334.667 379 333.333 379 332 379C329.333 379 323.833 381.333 315.5 386C307.167 390.667 299.333 396 292 402C288.333 405 284.667 408 281 411C282.833 406.167 284.667 401.333 286.5 396.5C290.167 386.833 291.5 380 290.5 376C289.5 372 288 369.833 286 369.5C284 369.167 282.167 370.167 280.5 372.5ZM190.5 371.5C188.833 372.5 188 373.667 188 375C188 376.333 186.167 377.333 182.5 378C178.833 378.667 176.333 385.5 175 398.5C173.667 411.5 173 422.167 173 430.5C173 438.833 173.833 443.167 175.5 443.5C177.167 443.833 178.5 443.667 179.5 443C180.5 442.333 183.833 434.833 189.5 420.5C195.167 406.167 199.667 399 203 399C206.333 399 208.333 399.333 209 400C209.333 400.333 209.667 400.667 210 401C207.667 402.167 205.333 403.333 203 404.5C198.333 406.833 196 409.667 196 413C196 416.333 196.333 418.333 197 419C197.667 419.667 197.667 420.833 197 422.5C196.333 424.167 196.333 425.667 197 427C197.667 428.333 199 429.5 201 430.5C203 431.5 205.667 435.167 209 441.5C212.333 447.833 214.667 451.5 216 452.5C217.333 453.5 218.833 454 220.5 454C222.167 454 223.833 453.167 225.5 451.5C227.167 449.833 228.333 448 229 446C229.667 444 229.833 439 229.5 431C229.167 423 231 417.167 235 413.5C239 409.833 241.5 406.167 242.5 402.5C243.5 398.833 243.333 396 242 394C240.667 392 239.833 389.667 239.5 387C239.167 384.333 237.5 381.667 234.5 379C231.5 376.333 227.333 374.167 222 372.5C216.667 370.833 210.5 370 203.5 370C196.5 370 192.167 370.5 190.5 371.5ZM388 378.5C386.667 380.167 385.167 381 383.5 381C381.833 381 379.333 383.167 376 387.5C372.667 391.833 370 398.333 368 407C366 415.667 365 422.833 365 428.5C365 434.167 365.333 437.333 366 438C366.667 438.667 368 439 370 439C372 439 374 438 376 436C378 434 382.167 427.333 388.5 416C394.833 404.667 398.333 396.5 399 391.5C399.667 386.5 399.5 383.5 398.5 382.5C397.5 381.5 397 380.167 397 378.5C397 377.667 397 376.833 397 376C395.833 376 394.667 376 393.5 376C391.167 376 389.333 376.833 388 378.5ZM139 394C139 395.833 139 397.667 139 399.5C139 401.333 139 403.167 139 405C138 405 137 405 136 405C134 405 132.833 404.667 132.5 404C132.167 403.333 133.167 401.5 135.5 398.5C136.667 397 137.833 395.5 139 394ZM363.5 462C361.167 464.667 359.333 465.667 358 465C357.333 464.667 356.667 464.333 356 464C356 466.667 356 469.333 356 472C356 477.333 356.5 480.333 357.5 481C358.5 481.667 360.5 481.833 363.5 481.5C366.5 481.167 368.167 480.5 368.5 479.5C368.833 478.5 369.667 478 371 478C372.333 478 373.5 477.167 374.5 475.5C375.5 473.833 375.833 472.667 375.5 472C375.167 471.333 375.5 470.667 376.5 470C377 469.667 377.5 469.333 378 469C377.167 468.167 376.333 467.333 375.5 466.5C373.833 464.833 373.167 463.167 373.5 461.5C373.667 460.667 373.833 459.833 374 459C372.833 458.833 371.667 458.667 370.5 458.5C368.167 458.167 365.833 459.333 363.5 462Z" fill="#000000" fill-rule="nonzero" opacity="1" stroke="none"/>
</g>
</svg>
